<svg height="512pt" viewBox="-84 0 512 512" width="512pt" xmlns="http://www.w3.org/2000/svg"><path d="m322.070312 229.714844h-299.660156v-214.648438c0-8.320312 6.746094-15.06249975 15.066406-15.06249975h269.527344c8.320313 0 15.066406 6.74218775 15.066406 15.06249975zm0 0" fill="#fff5f5"/><path d="m322.070312 15.066406v214.648438h-26.402343v-214.648438c0-8.324218-6.742188-15.066406-15.054688-15.066406h26.394531c8.320313 0 15.0625 6.742188 15.0625 15.066406zm0 0" fill="#efe2dd"/><path d="m344.480469 162.410156v344.425782c0 2.851562-2.3125 5.164062-5.164063 5.164062h-334.152344c-2.851562 0-5.164062-2.3125-5.164062-5.164062v-344.425782c0-2.851562 2.3125-5.164062 5.164062-5.164062h119.855469c2.683594 0 4.894531 2.058594 5.140625 4.730468 2.386719 26.042969 24.28125 46.433594 50.949219 46.433594 26.660156 0 48.554687-20.390625 50.941406-46.433594.246094-2.671874 2.457031-4.730468 5.136719-4.730468h102.128906c2.851563 0 5.164063 2.3125 5.164063 5.164062zm0 0" fill="#ef6161"/><path d="m344.480469 162.410156v344.425782c0 2.851562-2.3125 5.164062-5.164063 5.164062h-26.394531c2.851563 0 5.164063-2.3125 5.164063-5.164062v-344.425782c0-2.851562-2.3125-5.164062-5.164063-5.164062h26.394531c2.851563 0 5.164063 2.3125 5.164063 5.164062zm0 0" fill="#ea4444"/><path d="m174.957031 38.484375-30.046875 30.566406c-3.03125 3.082031-.847656 8.296875 3.480469 8.296875h60.089844c4.328125 0 6.511719-5.214844 3.480469-8.296875l-30.046876-30.566406c-1.910156-1.945313-5.046874-1.945313-6.957031 0zm0 0" fill="#ef6161"/><path d="m208.484375 77.34375h-6.308594c-.207031-.742188-.609375-1.464844-1.230469-2.097656l-30.046874-30.5625c-.351563-.363282-.746094-.652344-1.167969-.878906l5.226562-5.320313c1.910157-1.949219 5.046875-1.949219 6.957031 0l30.050782 30.566406c3.023437 3.085938.847656 8.292969-3.480469 8.292969zm0 0" fill="#ea4444"/><g fill="#a82b2b"><path d="m204.773438 311.152344h-117.859376c-4.277343 0-7.742187-3.46875-7.742187-7.746094s3.464844-7.746094 7.742187-7.746094h117.859376c4.277343 0 7.742187 3.46875 7.742187 7.746094s-3.464844 7.746094-7.742187 7.746094zm0 0"/><path d="m257.566406 311.152344h-16.394531c-4.277344 0-7.746094-3.46875-7.746094-7.746094s3.46875-7.746094 7.746094-7.746094h16.394531c4.277344 0 7.742188 3.46875 7.742188 7.746094s-3.464844 7.746094-7.742188 7.746094zm0 0"/><path d="m130.941406 360.324219h-44.027344c-4.277343 0-7.742187-3.464844-7.742187-7.742188 0-4.277343 3.464844-7.746093 7.742187-7.746093h44.027344c4.277344 0 7.746094 3.46875 7.746094 7.746093-.003906 4.277344-3.46875 7.742188-7.746094 7.742188zm0 0"/><path d="m257.566406 360.324219h-91.140625c-4.277343 0-7.742187-3.464844-7.742187-7.742188 0-4.277343 3.464844-7.746093 7.742187-7.746093h91.140625c4.277344 0 7.742188 3.46875 7.742188 7.746093 0 4.277344-3.464844 7.742188-7.742188 7.742188zm0 0"/><path d="m157.789062 390.949219h-70.875c-4.277343 0-7.742187-3.46875-7.742187-7.746094s3.464844-7.742187 7.742187-7.742187h70.875c4.277344 0 7.742188 3.464843 7.742188 7.742187s-3.464844 7.746094-7.742188 7.746094zm0 0"/><path d="m257.566406 390.949219h-64.667968c-4.277344 0-7.746094-3.46875-7.746094-7.746094s3.46875-7.742187 7.746094-7.742187h64.667968c4.277344 0 7.742188 3.464843 7.742188 7.742187s-3.464844 7.746094-7.742188 7.746094zm0 0"/></g></svg>