<svg id="Capa_1" enable-background="new 0 0 512 512" height="512" viewBox="0 0 512 512" width="512" xmlns="http://www.w3.org/2000/svg"><g><path d="m460.264 325.865c-8.534 0-15.453-6.919-15.453-15.453v-209.895c0-38.384-31.227-69.612-69.612-69.612-25.998 0-69.613 6.634-69.613 51.068v7.057c0 8.534-6.919 15.453-15.453 15.453s-15.453-6.919-15.453-15.453v-7.057c0-27.162 10.898-49.135 31.516-63.544 17.254-12.056 41.114-18.429 69.002-18.429 55.426 0 100.518 45.092 100.518 100.517v209.895c0 8.535-6.918 15.453-15.452 15.453z" fill="#ffe370"/><path d="m349.654 142.835v8.489c0 6.645-5.388 12.043-12.043 12.043h-94.952c-6.655 0-12.053-5.398-12.053-12.043v-8.489c0-16.431 6.665-31.318 17.431-42.093 37.261-37.226 101.617-11.001 101.617 42.093z" fill="#ffdd46"/><g fill="#75e1f7"><path d="m305.585 236.67v22.94c0 8.53-6.92 15.45-15.45 15.45-8.54 0-15.45-6.92-15.45-15.45v-22.94c0-8.54 6.91-15.46 15.45-15.46 8.53 0 15.45 6.92 15.45 15.46z"/><path d="m365.115 218.37v22.94c0 8.54-6.92 15.45-15.46 15.45-8.53 0-15.45-6.91-15.45-15.45v-22.94c0-8.53 6.92-15.45 15.45-15.45 8.54 0 15.46 6.92 15.46 15.45z"/><path d="m246.065 218.37v22.94c0 8.54-6.92 15.45-15.46 15.45-8.53 0-15.45-6.91-15.45-15.45v-22.94c0-8.53 6.92-15.45 15.45-15.45 8.54 0 15.46 6.92 15.46 15.45z"/></g><path d="m349.654 142.835v8.489c0 6.645-5.388 12.043-12.043 12.043h-47.481v-80.056c32.883 0 59.524 26.651 59.524 59.524z" fill="#fc0"/><path d="m305.585 236.67v22.94c0 8.53-6.92 15.45-15.45 15.45v-53.85c8.53 0 15.45 6.92 15.45 15.46z" fill="#2ad7f5"/><path d="m365.115 218.37v22.94c0 8.54-6.92 15.45-15.46 15.45v-53.84c8.54 0 15.46 6.92 15.46 15.45z" fill="#2ad7f5"/><path d="m246.065 218.37v22.94c0 8.54-6.92 15.45-15.46 15.45v-53.84c8.54 0 15.46 6.92 15.46 15.45z" fill="#2ad7f5"/><path d="m486.493 329.081-3.544 3.719c-3.822 6.253-7.675 14.124-11.105 23.972-1.757 5.03-22.508 16.228-22.508 16.228s15.591 9.632 14.73 14.678c-3.132 18.317-4.77 40.785-3.801 68.301.01.227.01.464.021.69.875 30.339-23.685 55.331-54.034 55.331h-300.504c-30.349 0-54.909-24.992-54.033-55.331.01-.227.01-.464.021-.69.968-27.516-.67-49.984-3.801-68.301-.89-5.213 12.4-15.678 12.4-15.678s-18.464-10.318-20.179-15.228c-3.43-9.849-7.283-17.719-11.105-23.972l-3.544-3.719c-6.696-7.036-1.71-18.667 7.994-18.667h444.997c9.705 0 14.691 11.631 7.995 18.667z" fill="#75e1f7"/><path d="m486.493 329.081-3.544 3.719c-3.822 6.253-7.675 14.124-11.105 23.972-1.665 4.767-22.509 16.228-22.509 16.228s15.654 9.267 14.73 14.678c-3.132 18.317-4.77 40.785-3.801 68.301.01.227.01.464.021.69.876 30.339-23.684 55.331-54.033 55.331h-150.252v-201.586h222.499c9.704 0 14.69 11.631 7.994 18.667z" fill="#2ad7f5"/><path d="m471.844 356.772c-3.029 8.674-5.728 18.893-7.778 30.905h-416.132c-2.05-12.012-4.749-22.231-7.778-30.905z" fill="#f3f0f3"/><path d="m471.844 356.772c-3.029 8.674-5.728 18.893-7.778 30.905h-208.066v-30.905z" fill="#eae1de"/></g></svg>