<svg height="512pt" viewBox="0 -50 512.001 512" width="512pt" xmlns="http://www.w3.org/2000/svg"><path d="m492.019531 223.457031h-472.039062v-200.785156c0-12.519531 10.152343-22.671875 22.671875-22.671875h426.695312c12.519532 0 22.671875 10.152344 22.671875 22.671875zm0 0" fill="#a2735e"/><path d="m492.019531 176.65625c-11.507812-10.9375-27.058593-17.664062-44.1875-17.664062h-383.664062c-17.128907 0-32.679688 6.726562-44.1875 17.664062v46.800781h472.039062zm0 0" fill="#916754"/><path d="m450.8125 198.726562c-4.140625 0-7.5-3.359374-7.5-7.5v-139.707031c0-1.550781-1.261719-2.8125-2.8125-2.8125h-369.003906c-1.546875 0-2.808594 1.261719-2.808594 2.8125v139.707031c0 4.140626-3.359375 7.5-7.5 7.5-4.144531 0-7.5-3.359374-7.5-7.5v-139.707031c0-9.820312 7.988281-17.8125 17.808594-17.8125h369.007812c9.820313 0 17.808594 7.992188 17.808594 17.8125v139.707031c0 4.140626-3.355469 7.5-7.5 7.5zm0 0" fill="#825c4b"/><path d="m220.316406 215.296875h-142.753906c-12.96875 0-23.480469-10.511719-23.480469-23.476563v-90.136718c0-12.964844 10.511719-23.476563 23.480469-23.476563h142.753906c12.964844 0 23.476563 10.511719 23.476563 23.476563v90.136718c0 12.964844-10.511719 23.476563-23.476563 23.476563zm0 0" fill="#f2f3f3"/><path d="m64.167969 158.992188c-3.429688 0-6.796875.277343-10.082031.796874v32.03125c0 12.964844 10.511718 23.476563 23.476562 23.476563h142.753906c12.964844 0 23.476563-10.511719 23.476563-23.476563v-32.828124zm0 0" fill="#e8e9ea"/><path d="m434.4375 215.296875h-142.753906c-12.964844 0-23.476563-10.511719-23.476563-23.476563v-90.136718c0-12.964844 10.511719-23.476563 23.476563-23.476563h142.753906c12.964844 0 23.476562 10.511719 23.476562 23.476563v90.136718c0 12.964844-10.511718 23.476563-23.476562 23.476563zm0 0" fill="#f2f3f3"/><path d="m447.832031 158.992188h-179.625v32.828124c0 12.964844 10.511719 23.476563 23.476563 23.476563h142.753906c12.964844 0 23.476562-10.511719 23.476562-23.476563v-32.03125c-3.285156-.519531-6.652343-.796874-10.082031-.796874zm0 0" fill="#e8e9ea"/><path d="m447.832031 318.234375h-383.664062c-35.4375 0-64.167969-28.730469-64.167969-64.167969s28.730469-64.167968 64.167969-64.167968h383.664062c35.4375 0 64.167969 28.730468 64.167969 64.167968s-28.730469 64.167969-64.167969 64.167969zm0 0" fill="#f284b9"/><path d="m470.730469 271.875h-429.460938c-19.191406 0-35.324219-13.101562-39.941406-30.851562-.867187 4.210937-1.328125 8.574218-1.328125 13.042968 0 35.4375 28.730469 64.167969 64.167969 64.167969h383.664062c35.4375 0 64.167969-28.730469 64.167969-64.167969 0-4.46875-.460938-8.828125-1.328125-13.042968-4.617187 17.75-20.75 30.851562-39.941406 30.851562zm0 0" fill="#d977a6"/><path d="m0 304.414062v95.976563c0 6.023437 4.882812 10.902344 10.902344 10.902344h21.570312c6.023438 0 10.902344-4.878907 10.902344-10.902344 0-24.699219 20.027344-44.726563 44.730469-44.726563h335.789062c24.703125 0 44.730469 20.027344 44.730469 44.726563 0 6.023437 4.878906 10.902344 10.902344 10.902344h21.570312c6.019532 0 10.902344-4.878907 10.902344-10.902344v-95.976563c0-6.023437-4.882812-10.902343-10.902344-10.902343h-490.195312c-6.019532 0-10.902344 4.878906-10.902344 10.902343zm0 0" fill="#a2735e"/></svg>