<svg height="453pt" viewBox="0 -24 453.50008 453" width="453pt" xmlns="http://www.w3.org/2000/svg"><path d="m412.5 35.25h-280c-22.089844 0-40 17.910156-40 40v290c0 22.089844 17.910156 40 40 40h280c22.089844 0 40-17.910156 40-40v-290c0-22.089844-17.910156-40-40-40zm0 0" fill="#f8ec7d"/><path d="m272.25 35.25h-139.75c-22.089844 0-40 17.910156-40 40v290c0 22.089844 17.910156 40 40 40h139.75zm0 0" fill="#e2d574"/><path d="m360 35.25h53.5c22.089844 0 40 17.910156 40 40v82h-360v-82c0-22.089844 17.910156-40 40-40zm-170 41c-9.546875-.003906-17.765625 6.738281-19.628906 16.097656-1.863282 9.363282 3.144531 18.738282 11.960937 22.390625 8.820313 3.65625 18.992188.570313 24.296875-7.363281 5.300782-7.9375 4.261719-18.515625-2.488281-25.265625-3.742187-3.757813-8.835937-5.871094-14.140625-5.859375zm0 0" fill="#e48e66"/><path d="m189 34.25h-56.5c-22.089844 0-40 17.910156-40 40v82h181.75v-122zm0 0" fill="#d18162"/><path d="m92.5 148.25h361v18h-361zm0 0" fill="#b56c55"/><g fill="#e2d574"><path d="m189 125.25c-13.839844.007812-25.757812-9.761719-28.460938-23.335938-2.707031-13.570312 4.550782-27.164062 17.335938-32.464843s27.53125-.832031 35.222656 10.671875 6.1875 26.839844-3.597656 36.628906c-5.4375 5.4375-12.8125 8.492188-20.5 8.5zm0-40c-6.074219.003906-10.996094 4.925781-11 11 .007812 6.070312 4.929688 10.992188 11 11 6.074219 0 11-4.925781 11-11s-4.925781-11-11-11zm0 0"/><path d="m359 125.25c-13.839844.007812-25.757812-9.761719-28.460938-23.335938-2.707031-13.570312 4.550782-27.164062 17.335938-32.464843s27.53125-.832031 35.222656 10.671875 6.1875 26.839844-3.597656 36.628906c-5.4375 5.4375-12.8125 8.492188-20.5 8.5zm0-40c-6.074219.003906-10.996094 4.925781-11 11 .007812 6.070312 4.929688 10.992188 11 11 6.074219 0 11-4.925781 11-11s-4.925781-11-11-11zm0 0"/><path d="m359 85.25c-4.96875 0-9-4.03125-9-9v-67c0-4.96875 4.03125-9 9-9s9 4.03125 9 9v67c0 4.96875-4.03125 9-9 9zm0 0"/><path d="m189 85.25c-4.96875 0-9-4.03125-9-9v-67c0-4.96875 4.03125-9 9-9s9 4.03125 9 9v67c0 4.96875-4.03125 9-9 9zm0 0"/></g><path d="m208 260.25h-177.273438l31.636719-31.636719c3.515625-3.515625 3.515625-9.210937 0-12.726562s-9.210937-3.515625-12.726562 0l-47 47c-3.515625 3.515625-3.515625 9.210937 0 12.726562l47 47c3.515625 3.515625 9.210937 3.515625 12.726562 0s3.515625-9.210937 0-12.726562l-31.636719-31.636719h177.273438c4.96875 0 9-4.03125 9-9s-4.03125-9-9-9zm0 0" fill="#b56c55"/></svg>