<svg height="423pt" viewBox="0 -9 423.5 423" width="423pt" xmlns="http://www.w3.org/2000/svg"><path d="m382.5 35.25h-280c-22.101562 0-40 17.898438-40 40v290c0 22.101562 17.898438 40 40 40h280c22.101562 0 40-17.898438 40-40v-290c0-22.101562-18-40-40-40zm0 0" fill="#f8ec7d"/><path d="m242.199219 35.25h-139.699219c-22.101562 0-40 17.898438-40 40v290c0 22.101562 17.898438 40 40 40h139.699219zm0 0" fill="#e2d574"/><path d="m330 34.25h53.5c22.101562 0 40 17.898438 40 40v82h-360v-82c0-22.101562 17.898438-40 40-40zm0 0" fill="#e48e66"/><path d="m160 76.25c-11 0-20 9-20 20s9 20 20 20 20-9 20-20c0-5.300781-2.101562-10.398438-5.898438-14.199219-3.800781-3.699219-8.800781-5.800781-14.101562-5.800781zm0 0" fill="#e48e66"/><path d="m159 34.25h-56.5c-22.101562 0-40 17.898438-40 40v82h181.699219v-122zm0 0" fill="#d18162"/><path d="m62.5 148.25h361v18h-361zm0 0" fill="#b56c55"/><g fill="#e2d574"><path d="m159 125.25c-16 0-29-13-29-29s13-29 29-29 29 13 29 29c0 7.699219-3.101562 15.101562-8.5 20.5-5.5 5.398438-12.898438 8.5-20.5 8.5zm0-40c-6.101562 0-11 4.898438-11 11s4.898438 11 11 11 11-4.898438 11-11-5-11-11-11zm0 0"/><path d="m329 125.25c-16 0-29-13-29-29s13-29 29-29 29 13 29 29c0 7.699219-3.101562 15.101562-8.5 20.5-5.5 5.398438-12.898438 8.5-20.5 8.5zm0-40c-6.101562 0-11 4.898438-11 11s4.898438 11 11 11 11-4.898438 11-11-5-11-11-11zm0 0"/><path d="m329 85.25c-5 0-9-4-9-9v-67c0-5 4-9 9-9s9 4 9 9v67c0 5-4.101562 9-9 9zm0 0"/><path d="m159 85.25c-5 0-9-4-9-9v-67c0-5 4-9 9-9s9 4 9 9v67c0 5-4.101562 9-9 9zm0 0"/></g><path d="m214.300781 262.851562-47-47c-3.5-3.5-9.199219-3.5-12.699219 0s-3.5 9.199219 0 12.699219l31.597657 31.699219h-177.199219c-5 0-9 4-9 9s4 9 9 9h177.199219l-31.597657 31.601562c-3.5 3.5-3.5 9.199219 0 12.699219s9.199219 3.5 12.699219 0l47-47c3.5-3.5 3.5-9.101562 0-12.699219zm0 0" fill="#b56c55"/></svg>