<?xml version="1.0" encoding="iso-8859-1"?>
<!-- Generator: Adobe Illustrator 19.0.0, SVG Export Plug-In . SVG Version: 6.00 Build 0)  -->
<svg version="1.1" id="Layer_1" xmlns="http://www.w3.org/2000/svg" xmlns:xlink="http://www.w3.org/1999/xlink" x="0px" y="0px"
	 viewBox="0 0 505.174 505.174" style="enable-background:new 0 0 505.174 505.174;" xml:space="preserve">
<g transform="translate(1 1)">
	<path style="fill:#ECF4F7;" d="M45.933,447.854H37.4h-8.533h-25.6v51.2h68.267v-51.2H45.933z M472.6,447.854h25.6v51.2h-68.267
		v-51.2h25.6h8.533H472.6z"/>
	<path style="fill:#FFD0A1;" d="M395.8,72.387v426.667H105.667V72.387c0,0,34.133-68.267,145.067-68.267S395.8,72.387,395.8,72.387
		L395.8,72.387z"/>
	<path style="fill:#AE938D;" d="M139.8,464.92h221.867v-68.267H139.8V464.92z M361.667,260.12v102.4H139.8V140.654h221.867V260.12z
		 M361.667,80.92v25.6H139.8v-25.6c0,0,34.133-42.667,110.933-42.667S361.667,80.92,361.667,80.92z"/>
	<path style="fill:#FF7474;" d="M63.853,379.587c2.56,6.827,0,14.507-5.973,18.773s-14.507,4.267-19.627,0
		c-5.973,4.267-13.653,4.267-20.48,0c-5.973-4.267-8.533-11.947-5.973-18.773c-5.973-4.267-8.533-11.947-5.973-18.773
		c2.56-6.827,9.387-11.947,16.213-11.947c2.56-6.827,8.533-11.947,16.213-11.947s13.653,5.12,16.213,11.947
		c6.827,0,13.653,4.267,16.213,11.947C72.387,367.64,69.827,375.32,63.853,379.587z M490.52,379.587
		c2.56,6.827,0,14.507-5.973,18.773c-5.973,4.267-14.507,4.267-19.627,0c-5.973,4.267-13.653,4.267-20.48,0
		c-5.973-4.267-8.533-11.947-5.973-18.773c-5.973-4.267-8.533-11.947-5.973-18.773c2.56-6.827,9.387-11.947,16.213-11.947
		c2.56-6.827,8.533-11.947,16.213-11.947c7.68,0,13.653,5.12,16.213,11.947c6.827,0,13.653,4.267,16.213,11.947
		C499.053,367.64,496.493,375.32,490.52,379.587z"/>
</g>
<path style="fill:#51565F;" d="M499.2,504.32c-2.56,0-4.267-1.707-4.267-4.267V453.12H473.6l0,0h-17.067l0,0H435.2v46.933
	c0,2.56-1.707,4.267-4.267,4.267h-358.4c-2.56,0-4.267-1.707-4.267-4.267V453.12H46.933l0,0H29.867l0,0H8.533v46.933
	c0,2.56-1.707,4.267-4.267,4.267S0,502.614,0,500.054v-51.2c0-2.56,1.707-4.267,4.267-4.267H23.04l-5.12-11.093
	c0-0.853-0.853-0.853-0.853-1.707c0-1.707,0.853-3.413,2.56-3.413c1.707-0.853,4.267,0,5.973,1.707l7.68,14.507h1.707v-45.227
	c0-0.853,0-0.853,0-1.707s0-0.853,0.853-0.853c0-0.853,0.853-0.853,1.707-0.853c0.853,0,0.853-0.853,1.707-0.853s0.853,0,1.707,0
	l0,0l0,0l0,0c0.853,0,0.853,0,0.853,0.853c4.267,3.413,10.24,3.413,15.36,0c4.267-3.413,5.973-9.387,4.267-14.507
	c-0.853-1.707,0-3.413,1.707-5.12c4.267-3.413,6.827-9.387,5.12-14.507l0,0c-1.707-5.12-6.827-8.533-11.947-8.533l0,0
	c-1.707,0-3.413-0.853-4.267-2.56c-1.707-5.12-6.827-8.533-11.947-8.533s-10.24,3.413-11.947,8.533
	c-0.853,1.707-2.56,2.56-4.267,2.56l0,0l0,0c-5.973,0-10.24,3.413-11.947,8.533c-1.707,5.12,0,11.093,5.12,14.507
	c1.707,0.853,2.56,3.413,1.707,5.12c-1.707,5.12,0,11.093,4.267,14.507c1.707,1.707,2.56,4.267,0.853,5.973
	c-1.707,1.707-4.267,2.56-5.973,0.853c-6.827-5.12-10.24-12.8-8.533-21.333c-5.973-5.973-8.533-14.507-5.973-22.187
	c2.56-7.68,9.387-13.653,17.067-14.507c3.413-7.68,11.093-11.947,18.773-11.947c8.533,0,15.36,5.12,18.773,11.947
	c7.68,0.853,14.507,6.827,17.067,14.507l0,0c2.56,7.68,0,16.213-5.973,22.187c1.707,7.68-1.707,16.213-8.533,21.333
	c-5.12,4.267-11.947,5.12-17.92,3.413v38.4h1.707l7.68-14.507c0.853-1.707,3.413-2.56,5.973-1.707c1.707,0.853,2.56,2.56,2.56,3.413
	c0,0.853,0,1.707-0.853,1.707l-5.12,11.093h18.773c2.56,0,4.267,1.707,4.267,4.267v46.933h349.867v-46.933
	c0-2.56,1.707-4.267,4.267-4.267h18.773l-5.12-11.093c0-0.853-0.853-0.853-0.853-1.707c0-1.707,0.853-3.413,2.56-3.413
	c1.707-0.853,4.267,0,5.973,1.707l7.68,14.507h1.707v-45.227c0-0.853,0-0.853,0-1.707s0-0.853,0.853-1.707
	c0-0.853,0.853-0.853,1.707-0.853c0.853,0,0.853,0,1.707-0.853c0.853,0,0.853,0,1.707,0l0,0l0,0c0.853,0,0.853,0,0.853,0.853
	c4.267,3.413,10.24,3.413,15.36,0c4.267-3.413,5.973-9.387,4.267-14.507c-0.853-1.707,0-3.413,1.707-5.12
	c4.267-3.413,6.827-9.387,5.12-14.507l0,0c-1.707-5.12-6.827-8.533-11.947-8.533l0,0c-1.707,0-3.413-0.853-4.267-2.56
	c-1.707-5.12-6.827-8.533-11.947-8.533c-5.12,0-10.24,3.413-11.947,8.533c-0.853,1.707-2.56,2.56-4.267,2.56l0,0l0,0
	c-5.973,0-10.24,3.413-11.947,8.533c-1.707,5.12,0,11.093,5.12,14.507c1.707,0.853,2.56,3.413,1.707,5.12
	c-1.707,5.12,0,11.093,4.267,14.507c1.707,1.707,2.56,4.267,0.853,5.973c-1.707,1.707-4.267,2.56-5.973,0.853
	c-6.827-5.12-10.24-12.8-8.533-21.333c-5.973-5.973-8.533-14.507-5.973-22.187s9.387-13.653,17.067-14.507
	c3.413-7.68,11.093-11.947,18.773-11.947c7.68,0,15.36,5.12,18.773,11.947c7.68,0.853,14.507,6.827,17.067,14.507l0,0
	c2.56,7.68,0,16.213-5.973,22.187c1.707,7.68-1.707,16.213-8.533,21.333c-5.12,4.267-11.947,5.12-17.92,3.413v38.4h1.707
	l7.68-14.507c0.853-1.707,3.413-2.56,5.973-1.707c1.707,0.853,2.56,2.56,2.56,3.413s0,1.707-0.853,1.707l-5.12,11.093h18.773
	c2.56,0,4.267,1.707,4.267,4.267v51.2C503.467,502.614,501.76,504.32,499.2,504.32z M396.8,470.187c-2.56,0-4.267-1.707-4.267-4.267
	V74.24c-4.267-7.68-40.96-64.853-140.8-64.853c-99.84,0-136.533,57.173-140.8,64.853v391.68c0,2.56-1.707,4.267-4.267,4.267
	s-4.267-1.707-4.267-4.267V73.387c0-0.853,0-1.707,0.853-1.707c1.707-2.56,36.693-70.827,148.48-70.827
	c112.64,0,147.627,67.413,148.48,70.827c0,0.853,0.853,0.853,0.853,1.707V465.92C401.067,468.48,399.36,470.187,396.8,470.187z
	 M362.667,470.187c-2.56,0-4.267-1.707-4.267-4.267v-64H145.067v64c0,2.56-1.707,4.267-4.267,4.267c-2.56,0-4.267-1.707-4.267-4.267
	v-68.267c0-2.56,1.707-4.267,4.267-4.267h221.867c2.56,0,4.267,1.707,4.267,4.267v68.267
	C366.933,468.48,365.227,470.187,362.667,470.187z M362.667,367.787H140.8c-2.56,0-4.267-1.707-4.267-4.267V141.654
	c0-2.56,1.707-4.267,4.267-4.267h221.867c2.56,0,4.267,1.707,4.267,4.267V261.12c0,2.56-1.707,4.267-4.267,4.267h-34.133
	c-2.56,0-4.267-1.707-4.267-4.267s1.707-4.267,4.267-4.267H358.4V145.92H145.067v213.333H358.4v-64c0-2.56,1.707-4.267,4.267-4.267
	s4.267,1.707,4.267,4.267v68.267C366.933,366.08,365.227,367.787,362.667,367.787z M362.667,111.787H140.8
	c-2.56,0-4.267-1.707-4.267-4.267v-25.6c0-0.853,0-1.707,0.853-2.56c1.707-1.707,36.693-44.373,114.347-44.373
	c77.653,0,112.64,42.667,114.347,44.373c0.853,0.853,0.853,1.707,0.853,2.56v25.6C366.933,110.08,365.227,111.787,362.667,111.787z
	 M145.067,103.254H358.4V83.627c-5.973-6.827-40.107-40.107-106.667-40.107S151.04,76.8,145.067,83.627V103.254z"/>
<g>
</g>
<g>
</g>
<g>
</g>
<g>
</g>
<g>
</g>
<g>
</g>
<g>
</g>
<g>
</g>
<g>
</g>
<g>
</g>
<g>
</g>
<g>
</g>
<g>
</g>
<g>
</g>
<g>
</g>
</svg>
