<svg id="Layer_3" height="512" viewBox="0 0 64 64" width="512" xmlns="http://www.w3.org/2000/svg" data-name="Layer 3"><circle cx="59" cy="7" fill="#744634" r="3"/><path d="m59 4a2.965 2.965 0 0 0 -1.554.446 2.965 2.965 0 0 0 -.446 1.554 3 3 0 0 0 3 3 2.965 2.965 0 0 0 1.554-.446 2.965 2.965 0 0 0 .446-1.554 3 3 0 0 0 -3-3z" fill="#a86d55"/><path d="m56.941 12h-8.961l-1.839-2.627a17.285 17.285 0 0 0 -14.161-7.373h.02a17.285 17.285 0 0 0 -14.161 7.373l-1.839 2.627h-8.941v36h49.941s-.059-36-.059-36z" fill="#fd4482"/><path d="m56.941 12h-8.961l-1.839-2.627a17.253 17.253 0 0 0 -28.024-.373c-.092.125-.189.245-.278.373l-1.839 2.627h-5.807a36 36 0 0 0 35.866 33h10.941c-.019-8.632-.059-33-.059-33z" fill="#fd82ab"/><path d="m31.98 2h.01.01z" fill="#fd82ab"/><g fill="#ecb7ab"><path d="m13.5 25.379h2v4.243h-2z" transform="matrix(.707 -.707 .707 .707 -15.198 18.308)"/><path d="m25.379 26.5h4.243v2h-4.243z" transform="matrix(.707 -.707 .707 .707 -11.391 27.5)"/><path d="m35.5 25.379h2v4.243h-2z" transform="matrix(.707 -.707 .707 .707 -8.755 33.864)"/><path d="m47.379 26.5h4.243v2h-4.243z" transform="matrix(.707 -.707 .707 .707 -4.947 43.056)"/></g><path d="m62 48-.947-36a2.057 2.057 0 0 0 -2.053-2 2.057 2.057 0 0 0 -2.056 2l.056 36" fill="#3f271f"/><path d="m61.053 12a2.048 2.048 0 0 0 -1.053-1.731 2.049 2.049 0 0 0 -1.059 1.731l.059 36h3z" fill="#744634"/><path d="m2 48 .947-36a2.057 2.057 0 0 1 2.053-2 2.057 2.057 0 0 1 2.056 2l-.049 36" fill="#3f271f"/><path d="m5.059 12a2.049 2.049 0 0 0 -1.059-1.731 2.048 2.048 0 0 0 -1.053 1.731l-.947 36h3.007z" fill="#744634"/><path d="m2 58v4h10v-4" fill="#333"/><path d="m12 58h50v-10.001h-60v10.001z" fill="#4d4d4d"/><path d="m52 58v4h10v-4" fill="#333"/><path d="m4 48a9 9 0 0 1 9-9h38a9 9 0 0 1 9 9" fill="#d8948b"/><path d="m6.552 41.729a7 7 0 0 0 6.448 4.271h46.769a9 9 0 0 0 -8.769-7h-38a8.968 8.968 0 0 0 -6.448 2.729z" fill="#ecb7ab"/><circle cx="5" cy="7" fill="#744634" r="3"/><path d="m5 4a2.965 2.965 0 0 0 -1.554.446 2.965 2.965 0 0 0 -.446 1.554 3 3 0 0 0 3 3 2.965 2.965 0 0 0 1.554-.446 2.965 2.965 0 0 0 .446-1.554 3 3 0 0 0 -3-3z" fill="#a86d55"/><path d="m40 12a2.748 2.748 0 0 1 -.02.41 10.067 10.067 0 0 1 -6.53 9.05l-1.45.54-1.45-.54a10.067 10.067 0 0 1 -6.53-9.05 2.748 2.748 0 0 1 -.02-.41 4 4 0 0 1 8 0 4 4 0 0 1 8 0z" fill="#d30915"/><path d="m27 39 .613-.92a8.258 8.258 0 0 0 1.387-4.58 8.258 8.258 0 0 0 -1.387-4.58l-.613-.92a9.468 9.468 0 0 0 -4.236-1h-3.528a9.468 9.468 0 0 0 -4.236 1l-.613.92a8.258 8.258 0 0 0 -1.387 4.58 8.258 8.258 0 0 0 1.387 4.58l.613.92" fill="#fde0d3"/><path d="m22.764 27h-3.528a9.454 9.454 0 0 0 -3.91.86 12.99 12.99 0 0 0 12.342 10.123 8.233 8.233 0 0 0 -.055-9.063l-.613-.92a9.468 9.468 0 0 0 -4.236-1z" fill="#f8eae4"/><path d="m49 39 .613-.92a8.258 8.258 0 0 0 1.387-4.58 8.258 8.258 0 0 0 -1.387-4.58l-.613-.92a9.468 9.468 0 0 0 -4.236-1h-3.528a9.468 9.468 0 0 0 -4.236 1l-.613.92a8.258 8.258 0 0 0 -1.387 4.58 8.258 8.258 0 0 0 1.387 4.58l.613.92" fill="#fde0d3"/><path d="m44.764 27h-3.528a9.454 9.454 0 0 0 -3.91.86 12.99 12.99 0 0 0 12.342 10.123 8.233 8.233 0 0 0 -.055-9.063l-.613-.92a9.468 9.468 0 0 0 -4.236-1z" fill="#f8eae4"/><path d="m36 8a3.977 3.977 0 0 0 -2.281.719 4.034 4.034 0 0 0 -.962.954 3.971 3.971 0 0 0 -.757 2.327 3.995 3.995 0 0 0 -6.281-3.281 3.977 3.977 0 0 0 -.719 2.281 2.748 2.748 0 0 0 .02.41 10.067 10.067 0 0 0 6.53 9.05l1.45.54 1.45-.54a10.033 10.033 0 0 0 3.058-1.851 10.024 10.024 0 0 0 2.472-6.2 2.748 2.748 0 0 0 .02-.409 4 4 0 0 0 -4-4z" fill="#fc1f49"/><path d="m2 56h10 50v-5.001h-60z" fill="#808080"/></svg>