<svg id="color" enable-background="new 0 0 24 24" height="512" viewBox="0 0 24 24" width="512" xmlns="http://www.w3.org/2000/svg"><path d="m12 24c-3.86 0-7-3.141-7-7v-14.25c0-1.517 1.233-2.75 2.75-2.75h8.5c1.517 0 2.75 1.233 2.75 2.75v14.25c0 3.859-3.14 7-7 7z" fill="#607d8b"/><g fill="#fff"><path d="m13.75 6.25h-3.5c-.414 0-.75-.336-.75-.75s.336-.75.75-.75h3.5c.414 0 .75.336.75.75s-.336.75-.75.75z"/><path d="m13.75 20h-3.5c-.414 0-.75-.336-.75-.75s.336-.75.75-.75h3.5c.414 0 .75.336.75.75s-.336.75-.75.75z"/><path d="m12 8c-.414 0-.75-.336-.75-.75v-3.5c0-.414.336-.75.75-.75s.75.336.75.75v3.5c0 .414-.336.75-.75.75z"/></g><path d="m12 0h-4.25c-1.517 0-2.75 1.233-2.75 2.75v14.25c0 3.859 3.14 7 7 7v-4h-1.75c-.414 0-.75-.336-.75-.75s.336-.75.75-.75h1.75v-10.5c-.414 0-.75-.336-.75-.75v-1h-1c-.414 0-.75-.336-.75-.75s.336-.75.75-.75h1v-1c0-.414.336-.75.75-.75z" fill="#546d79"/><path d="m11.25 4.75h-1c-.414 0-.75.336-.75.75s.336.75.75.75h1z" fill="#dedede"/><path d="m12 18.5h-1.75c-.414 0-.75.336-.75.75s.336.75.75.75h1.75z" fill="#dedede"/><path d="m12 3c-.414 0-.75.336-.75.75v1 1.5 1c0 .414.336.75.75.75z" fill="#dedede"/><path d="m14.25 14.75c-.192 0-.384-.073-.53-.22-.293-.293-.293-.768 0-1.061l.97-.97-.97-.97c-.293-.293-.293-.768 0-1.061s.768-.293 1.061 0l1.5 1.5c.293.293.293.768 0 1.061l-1.5 1.5c-.147.148-.339.221-.531.221z" fill="#fff"/><path d="m9.75 14.75c-.192 0-.384-.073-.53-.22l-1.5-1.5c-.293-.293-.293-.768 0-1.061l1.5-1.5c.293-.293.768-.293 1.061 0s.293.768 0 1.061l-.97.97.97.97c.293.293.293.768 0 1.061-.147.146-.339.219-.531.219z" fill="#fff"/><path d="m16.5 12.5h-1.811l-.97.97c-.293.293-.293.768 0 1.061.146.146.338.22.53.22s.384-.073.53-.22l1.5-1.5c.148-.147.221-.339.221-.531z" fill="#dedede"/><path d="m9.311 12.5h-1.811c0 .192.073.384.22.53l1.5 1.5c.146.146.338.22.53.22s.384-.073.53-.22c.293-.293.293-.768 0-1.061z" fill="#dedede"/></svg>