<?xml version="1.0" encoding="utf-8"?>
<!-- Generator: Adobe Illustrator 24.3.0, SVG Export Plug-In . SVG Version: 6.00 Build 0)  -->
<svg version="1.1" id="Capa_1" xmlns="http://www.w3.org/2000/svg" xmlns:xlink="http://www.w3.org/1999/xlink" x="0px" y="0px"
	 viewBox="0 0 512 512" style="enable-background:new 0 0 512 512;" xml:space="preserve">
<style type="text/css">
	.st0{fill:#F9F9F9;}
	.st1{fill:#EDEDED;}
</style>
<g>
	<path class="st0" d="M186.5,377.2l200.7-200.7c32.8,12.9,71.5,6,98-20.5c26.5-26.5,33.3-65.2,20.5-98l-46.3,46.3l-40.8-10.9
		l-10.9-40.8L454,6.3c-32.8-12.8-71.5-6-98,20.5c-26.5,26.5-33.3,65.2-20.5,98L134.8,325.5c-35.3-14.9-77.6-7.9-106.4,20.8
		c-37.9,37.9-37.9,99.4,0,137.3s99.4,37.9,137.3,0C194.5,454.8,201.4,412.5,186.5,377.2L186.5,377.2z M71.2,440.8
		c-14.3-14.3-14.3-37.4,0-51.7c14.3-14.3,37.4-14.3,51.7,0c14.3,14.3,14.3,37.4,0,51.7C108.7,455.1,85.5,455.1,71.2,440.8z"/>
	<path class="st1" d="M165.7,483.6c-37.9,37.9-99.4,37.9-137.3,0l42.8-42.8c14.3,14.3,37.4,14.3,51.7,0c14.3-14.3,14.3-37.4,0-51.7
		L418.6,93.4l40.8,10.9L505.7,58c12.8,32.8,6,71.5-20.5,98c-26.5,26.5-65.2,33.3-98,20.5L186.5,377.2
		C201.4,412.5,194.5,454.8,165.7,483.6L165.7,483.6z"/>
	<path class="st0" d="M372.3,351.1L96.2,75l19-19L44.2,0L0,44.2l55.9,71l19-19l276.1,276.1L372.3,351.1z"/>
	<path class="st1" d="M361.7,361.7L22.1,22.1L0,44.2l55.9,71l19-19l276.1,276.1L361.7,361.7z"/>
	<path class="st0" d="M304.4,377l51.7,51.7l22.5-0.3l50.1-50.1l0-22.1L377,304.4L304.4,377z"/>
	<path class="st1" d="M304.4,377l51.7,51.7l22.5-0.3l24.9-24.9l-62.8-62.8L304.4,377z"/>
	<path class="st0" d="M356.2,428.7l68.3,68.3c10,10,23.1,15,36.3,15c13.1,0,26.2-5,36.3-15c20-20,20-52.5,0-72.5l-68.3-68.3
		L356.2,428.7z"/>
	<path class="st1" d="M356.2,428.7l68.3,68.3c10,10,23.1,15,36.3,15c13.1,0,26.2-5,36.3-15L392.4,392.4L356.2,428.7z"/>
</g>
</svg>
