<svg id="Layer_3" enable-background="new 0 0 64 64" height="512" viewBox="0 0 64 64" width="512" xmlns="http://www.w3.org/2000/svg"><g><path d="m3 51h-1v-37l12-12h26v49h-5" fill="#c7e2fc"/><path d="m2 14v31.761c1.312.152 2.645.239 4 .239 18.225 0 33-14.103 33-31.5 0-4.442-.968-8.667-2.706-12.5h-22.294z" fill="#ebf7fe"/><path d="m10 36h-2c-1.657 0-3 1.343-3 3 0 1.657 1.343 3 3 3h2" fill="#db9b7c"/><path d="m24 42h2c1.657 0 3-1.343 3-3 0-1.657-1.343-3-3-3h-2" fill="#db9b7c"/><path d="m32 62v-6.993c0-2.9-2.074-5.385-4.927-5.903l-6.073-1.104h-8l-6.073 1.104c-2.853.519-4.927 3.004-4.927 5.903v6.993z" fill="#669e4f"/><path d="m13 60c8.117 0 14.894-4.186 16.584-9.779-.725-.544-1.569-.945-2.511-1.116l-6.073-1.105h-8l-6.073 1.104c-2.853.519-4.927 3.004-4.927 5.903v2.014c2.966 1.854 6.802 2.979 11 2.979z" fill="#78b75b"/><path d="m14 2v12h-12" fill="#8892a0"/><path d="m27 7-7 5.727v10.273h14v-10.273z" fill="#c66b60"/><path d="m9 33v7c0 4.418 3.582 8 8 8 4.418 0 8-3.582 8-8v-7" fill="#efbe9a"/><path d="m17 52c2.209 0 4-1.791 4-4h-8c0 2.209 1.791 4 4 4z" fill="#db9b7c"/><g><path d="m7 55h2v7h-2z" fill="#96cc7f"/></g><g><path d="m25 55h2v7h-2z" fill="#96cc7f"/></g><path d="m27 36v-4c0-3.314-2.686-6-6-6h-8c-3.314 0-6 2.686-6 6v4h5l2-2 2 2z" fill="#976947"/><path d="m53 19c-4.971 0-9 4.029-9 9 0 3.917 2.507 7.24 6 8.477v3.523l2 2-2 2 2 2-2 2v3l3 2 3-2v-14.523c3.493-1.237 6-4.56 6-8.477 0-4.971-4.029-9-9-9zm0 10c-1.657 0-3-1.343-3-3s1.343-3 3-3 3 1.343 3 3-1.343 3-3 3z" fill="#4d5d7a"/><path d="m24 22v-5h6v5" fill="#ebf7fe"/><g fill="#8892a0"><path d="m55.93 26.634c-.291 1.352-1.491 2.366-2.93 2.366-1.657 0-3-1.343-3-3s1.343-3 3-3c1.274 0 2.355.797 2.79 1.916-.208-2.027-.566-3.956-1.055-5.745-.562-.11-1.141-.171-1.735-.171-4.971 0-9 4.029-9 9 0 3.917 2.507 7.24 6 8.477v3.523l2 2-2 2 1.766 1.766c2.589-4.036 4.234-10.047 4.234-16.766 0-.8-.025-1.589-.07-2.366z"/><path d="m50 48.049c.147-.156.293-.318.436-.486l-.436.437z"/></g><g><path d="m54 26h-2v-7c0-4.962-4.038-9-9-9h-13.556v-2h13.556c6.065 0 11 4.935 11 11z" fill="#4d5d7a"/></g><g><path d="m37.367 16.774-10.367-8.482-10.367 8.482-1.267-1.548 11-9c.368-.302.898-.302 1.267 0l11 9z" fill="#c18e59"/></g></g></svg>