<?xml version="1.0" encoding="utf-8"?>
<!-- Generator: Adobe Illustrator 24.1.1, SVG Export Plug-In . SVG Version: 6.00 Build 0)  -->
<svg version="1.1" id="Layer_1" xmlns="http://www.w3.org/2000/svg" xmlns:xlink="http://www.w3.org/1999/xlink" x="0px" y="0px"
	 viewBox="0 0 500 500" style="enable-background:new 0 0 500 500;" xml:space="preserve">
<style type="text/css">
	.st0{fill:#FFFFFF;}
</style>
<path class="st0" d="M32.55,429.53c8.04,0,16.08-0.19,24.11,0.09c3.84,0.13,5.8-1.06,7.43-4.71c8.8-19.58,24.36-30.28,45.6-30.31
	c21.57-0.03,37.19,10.89,46,30.79c1.36,3.06,2.88,4.29,6.25,4.22c10.16-0.2,20.33-0.18,30.49-0.01c3.27,0.05,4.9-0.9,6.25-4.13
	c9.63-22.97,26.85-35.86,51.97-35.7c24.77,0.16,41.85,12.87,51.2,35.71c1.32,3.23,2.96,4.16,6.23,4.12
	c13.47-0.15,26.95-0.15,40.42,0c3.29,0.04,4.91-1.01,6.32-4.12c8.94-19.7,24.37-30.88,46-30.89c21.61-0.01,37.17,11.02,46.03,30.8
	c1.61,3.59,3.67,4.22,7.04,4.19c12.53-0.12,25.06,0.17,37.59-0.17c5.04-0.13,7.38,0.88,6.92,6.53c-0.5,6.11-0.39,12.3-0.03,18.43
	c0.26,4.51-1.51,5.59-5.71,5.52c-12.76-0.22-25.53,0.06-38.29-0.16c-4.14-0.07-6.05,1.33-7.89,5.18
	c-9.04,18.86-23.93,29.67-45.21,29.8c-21.57,0.13-36.74-10.6-45.95-29.73c-1.82-3.78-3.65-5.32-7.84-5.24
	c-12.76,0.24-25.53,0.22-38.3,0c-4.12-0.07-6.14,1.17-7.75,5.21c-8.56,21.56-28.47,35.01-51.14,35.07
	c-22.4,0.06-42.51-13.55-51.23-35.06c-1.44-3.55-2.93-5.33-7.03-5.21c-9.92,0.27-19.86,0.26-29.78-0.01
	c-3.75-0.1-5.27,1.5-6.72,4.68c-8.9,19.43-24.02,30.18-45.54,30.29c-21.55,0.12-36.75-10.58-45.77-29.91c-1.8-3.85-3.9-5.1-8-5.05
	c-16.31,0.21-32.62-0.02-48.93,0.18c-4.18,0.05-5.97-0.93-5.7-5.49c0.38-6.36,0.41-12.78-0.02-19.14c-0.34-4.98,1.8-5.95,6.16-5.82
	C16,429.7,24.28,429.52,32.55,429.53z"/>
<path class="st0" d="M250,0C147.51,0,64.12,83.39,64.12,185.88S147.51,371.76,250,371.76s185.88-83.39,185.88-185.88S352.49,0,250,0
	z M311.21,273.38l-79.8-79.8V74.35h37.18v103.83l68.91,68.91L311.21,273.38z"/>
</svg>
