<?xml version="1.0" encoding="iso-8859-1"?>
<!-- Generator: Adobe Illustrator 22.1.0, SVG Export Plug-In . SVG Version: 6.00 Build 0)  -->
<svg xmlns="http://www.w3.org/2000/svg" xmlns:xlink="http://www.w3.org/1999/xlink" version="1.1" id="Layer_1_1_" x="0px" y="0px" viewBox="0 0 64 64" style="enable-background:new 0 0 64 64;" xml:space="preserve" width="512" height="512">
<linearGradient id="SVGID_1_" gradientUnits="userSpaceOnUse" x1="32" y1="63" x2="32" y2="1">
	<stop offset="0" style="stop-color:#9F2FFF"/>
	<stop offset="1" style="stop-color:#0BB1D3"/>
</linearGradient>
<path style="fill:url(#SVGID_1_);" d="M15,39C9.486,39,5,43.486,5,49s4.486,10,10,10s10-4.486,10-10S20.514,39,15,39z M15,57  c-4.411,0-8-3.589-8-8s3.589-8,8-8s8,3.589,8,8S19.411,57,15,57z M14,43h2v6.414l-2.293,2.293l-1.414-1.414L14,48.586V43z M60,5h-3  V4c0-1.654-1.346-3-3-3s-3,1.346-3,3v1h-2V4c0-1.654-1.346-3-3-3s-3,1.346-3,3v1H33V4c0-1.654-1.346-3-3-3s-3,1.346-3,3v1h-2V4  c0-1.654-1.346-3-3-3s-3,1.346-3,3v1h-3c-1.654,0-3,1.346-3,3v19H9v6h2v2.59C5.225,37.316,1,42.671,1,49c0,7.72,6.28,14,14,14  s14-6.28,14-14h-2c0,6.617-5.383,12-12,12S3,55.617,3,49s5.383-12,12-12c5.593,0,10.396,3.796,11.679,9.229L26.861,47H60  c1.654,0,3-1.346,3-3V8C63,6.346,61.654,5,60,5z M53,4c0-0.552,0.449-1,1-1s1,0.448,1,1l0.001,5H53V4z M45,4c0-0.552,0.449-1,1-1  s1,0.448,1,1l0.001,5H45V4z M29,4c0-0.552,0.449-1,1-1s1,0.448,1,1l0.001,5H29V4z M21,4c0-0.552,0.449-1,1-1s1,0.448,1,1l0.001,5H21  V4z M16,7h3v2c0,1.103,0.897,2,2,2h2c1.103,0,2-0.897,2-2V7h2v2c0,1.103,0.897,2,2,2h2c1.103,0,2-0.897,2-2V7h10v2  c0,1.103,0.897,2,2,2h2c1.103,0,2-0.897,2-2V7h2v2c0,1.103,0.897,2,2,2h2c1.103,0,2-0.897,2-2V7h3c0.551,0,1,0.448,1,1v5H15V8  C15,7.448,15.449,7,16,7z M11,29h8v2h-8V29z M13,35.16V33h4v2.15C16.345,35.057,15.679,35,15,35C14.319,35,13.655,35.065,13,35.16z   M60,45H28.421c-0.206-0.694-0.465-1.36-0.767-2H57V17H19v7.936h2V19h34v22H26.504c-1.801-2.6-4.445-4.51-7.504-5.414V33h2v-6h-6V15  h46v29C61,44.552,60.551,45,60,45z M40,33c0-1.103-0.897-2-2-2c-2.206,0-4-1.794-4-4c0-1.859,1.28-3.411,3-3.858V21h2v2.142  c1.72,0.447,3,1.999,3,3.858h-2c0-1.103-0.897-2-2-2s-2,0.897-2,2s0.897,2,2,2c2.206,0,4,1.794,4,4c0,1.859-1.28,3.411-3,3.858V39  h-2v-2.142c-1.72-0.447-3-1.999-3-3.858h2c0,1.103,0.897,2,2,2S40,34.103,40,33z"/>
</svg>
