<svg id="Layer_3" enable-background="new 0 0 64 64" height="512" viewBox="0 0 64 64" width="512" xmlns="http://www.w3.org/2000/svg"><g><path d="m52 12 5-10 5 10v47c0 1.657-1.343 3-3 3h-4c-1.657 0-3-1.343-3-3z" fill="#efbe9a"/><path d="m61.667 11.333-2.667 2.667-2-2-2 2-2.667-2.667-.333.667v40h10v-40z" fill="#e47c6e"/><path d="m59 62h-4c-1.657 0-3-1.343-3-3v-7h10v7c0 1.657-1.343 3-3 3z" fill="#8892a0"/><path d="m59 14-2-2-2 2v38h4z" fill="#c66b60"/><path d="m46 16h-14v-14h-30v60h44z" fill="#c7e2fc"/><path d="m46 16h-14v-14" fill="#8892a0"/><path d="m32 2h-17.164c-1.821 4.445-2.836 9.346-2.836 14.5 0 19.981 15.178 36.203 34 36.487v-36.987h-14z" fill="#ebf7fe"/><g><path d="m41 23h2v2h-2z" fill="#8892a0"/></g><g><path d="m5 23h34v2h-34z" fill="#8892a0"/></g><g><path d="m5 27h2v2h-2z" fill="#8892a0"/></g><g><path d="m9 27h34v2h-34z" fill="#8892a0"/></g><g><path d="m41 31h2v2h-2z" fill="#8892a0"/></g><g><path d="m5 31h34v2h-34z" fill="#8892a0"/></g><g><path d="m5 35h2v2h-2z" fill="#8892a0"/></g><g><path d="m9 35h34v2h-34z" fill="#8892a0"/></g><g><path d="m41 39h2v2h-2z" fill="#8892a0"/></g><g><path d="m5 39h34v2h-34z" fill="#8892a0"/></g><g><path d="m5 43h2v2h-2z" fill="#8892a0"/></g><g><path d="m9 43h34v2h-34z" fill="#8892a0"/></g><g><path d="m41 47h2v2h-2z" fill="#8892a0"/></g><g><path d="m5 47h34v2h-34z" fill="#8892a0"/></g><g><path d="m5 51h2v2h-2z" fill="#8892a0"/></g><g><path d="m9 51h34v2h-34z" fill="#8892a0"/></g></g></svg>