<svg id="Layer_1" height="512" viewBox="0 0 512 512" width="512" xmlns="http://www.w3.org/2000/svg" data-name="Layer 1"><path d="m432.65 187.019a21.758 21.758 0 0 1 0 30.76l-276.85 276.85a21.77 21.77 0 0 1 -30.77 0l-107.66-107.66a21.758 21.758 0 0 1 0-30.76l276.85-276.85a21.74 21.74 0 0 1 30.76 0z" fill="#565e6d"/><path d="m338.82 173.179a65.252 65.252 0 1 1 -92.28 0 65.311 65.311 0 0 1 92.28 0z" fill="#edc6b9"/><g fill="#5fa8ed"><circle cx="241.155" cy="340.054" r="16.313"/><circle cx="187.325" cy="393.884" r="16.313"/><circle cx="171.945" cy="270.844" r="16.313"/><circle cx="118.115" cy="324.674" r="16.313"/></g><path d="m315.75 196.249a32.626 32.626 0 1 1 -46.14 0 32.61 32.61 0 0 1 46.14 0z" fill="#e75163"/><path d="m47.37 386.969a21.758 21.758 0 0 1 0-30.76l276.85-276.85c.122-.122.256-.225.38-.344a21.727 21.727 0 0 0 -30.38.344l-276.85 276.85a21.758 21.758 0 0 0 0 30.76l107.66 107.66a21.757 21.757 0 0 0 30.385.348c-.126-.12-.261-.224-.385-.348z" fill="#4a5160"/><path d="m299.61 196.249a32.608 32.608 0 0 1 8.07-5.908 32.628 32.628 0 1 0 0 57.956 32.638 32.638 0 0 1 -8.07-52.048z" fill="#f9758c"/><path d="m111.244 431.519-.001-.001" fill="none"/><path d="m96.7 422.971a5.983 5.983 0 0 1 -4.243-1.756l-16.217-16.215a6 6 0 0 1 8.485-8.487l16.215 16.215a6 6 0 0 1 -4.24 10.243z" fill="#f4f8fc"/><path d="m418.905 140.045a6 6 0 0 1 -6-5.991 35.008 35.008 0 0 0 -34.96-34.954 6 6 0 0 1 .011-12h.01a47.007 47.007 0 0 1 46.939 46.939 6 6 0 0 1 -5.99 6.01z" fill="#d4e1f4"/><path d="m459.958 140.044a6 6 0 0 1 -6-6 76.074 76.074 0 0 0 -76.005-76.006 6 6 0 0 1 0-12 88.075 88.075 0 0 1 88 88 6 6 0 0 1 -6 6z" fill="#d4e1f4"/><path d="m501 140.045a6 6 0 0 1 -6-6 117.1 117.1 0 0 0 -117.047-117.045 6 6 0 0 1 0-12 129.1 129.1 0 0 1 129.047 129.043 6 6 0 0 1 -6 6z" fill="#d4e1f4"/><path d="m501 140.045a6 6 0 0 1 -6-6 117.1 117.1 0 0 0 -117.047-117.045 6 6 0 0 1 0-12 129.1 129.1 0 0 1 129.047 129.043 6 6 0 0 1 -6 6z" fill="#d4e1f4"/></svg>