<svg id="Layer_1_1_" enable-background="new 0 0 64 64" height="512" viewBox="0 0 64 64" width="512" xmlns="http://www.w3.org/2000/svg"><path d="m38 3h-35v58h40v-52z" fill="#d6dee0"/><path d="m34.429 30c-1.223 0-2.214.991-2.214 2.214v26.571c0 1.223.991 2.214 2.214 2.214h8.571v-30.999z" fill="#cdd4d6"/><path d="m43 9-5-6v6z" fill="#cdd4d6"/><path d="m59 33h-22c-1.105 0-2 .895-2 2v24c0 1.105.895 2 2 2h22c1.105 0 2-.895 2-2v-24c0-1.105-.895-2-2-2z" fill="#2d72bc"/><path d="m31 14v-7h-4v3.8l-6-4.8-15 12h2v14h26v-14h2z" fill="#fcbc04"/><path d="m8 37h23v20h-23z" fill="#fce297"/><path d="m56 42h-16c-.552 0-1-.448-1-1v-3c0-.552.448-1 1-1h16c.552 0 1 .448 1 1v3c0 .552-.448 1-1 1z" fill="#fff"/><path d="m38 38c0-1.105.895-2 2-2h21v-1c0-1.105-.895-2-2-2h-22c-1.105 0-2 .895-2 2v24c0 1.105.895 2 2 2h1z" fill="#2a69ad"/><g fill="#fff"><path d="m17.414 27 8.586-8.586c.39-.39.39-1.024 0-1.414-.39-.39-1.024-.39-1.414 0l-8.586 8.586c-.39.39-.39 1.024 0 1.414.39.39 1.024.39 1.414 0z"/><path d="m22.694 22.959c-2.193 3.108 1.239 6.54 4.347 4.347.1-.071.194-.165.265-.265 2.193-3.108-1.239-6.54-4.347-4.347-.1.071-.194.165-.265.265zm3.306 2.041c0 .551-.449 1-1 1s-1-.449-1-1 .449-1 1-1 1 .449 1 1z"/><path d="m14.959 21.306c3.108 2.193 6.54-1.239 4.347-4.347-.071-.1-.165-.194-.265-.265-3.108-2.193-6.54 1.239-4.347 4.347.071.1.165.194.265.265zm2.041-3.306c.551 0 1 .449 1 1s-.449 1-1 1-1-.449-1-1 .449-1 1-1z"/><path d="m43 45c-.552 0-1 .448-1 1 0 .552-.448 1-1 1-.552 0-1 .448-1 1 0 .552.448 1 1 1 .552 0 1 .448 1 1 0 .552.448 1 1 1 .552 0 1-.448 1-1 0-.552.448-1 1-1 .552 0 1-.448 1-1 0-.552-.448-1-1-1-.552 0-1-.448-1-1 0-.552-.448-1-1-1z"/><path d="m43.707 52.879c-.39.39-1.024.39-1.414 0-.39-.39-1.024-.39-1.414 0-.39.39-.39 1.024 0 1.414.39.39.39 1.024 0 1.414-.39.39-.39 1.024 0 1.414.39.39 1.024.39 1.414 0 .39-.39 1.024-.39 1.414 0 .39.39 1.024.39 1.414 0 .39-.39.39-1.024 0-1.414-.39-.39-.39-1.024 0-1.414.39-.39.39-1.024 0-1.414-.39-.391-1.023-.391-1.414 0z"/><path d="m50 48c0 .552.448 1 1 1h4c.552 0 1-.448 1-1 0-.552-.448-1-1-1h-4c-.552 0-1 .448-1 1z"/><path d="m51 56h4c.552 0 1-.448 1-1 0-.552-.448-1-1-1h-4c-.552 0-1 .448-1 1 0 .552.448 1 1 1z"/><path d="m52 52h2v1h-2z"/><path d="m52 57h2v1h-2z"/><path d="m11 41c0 .552.448 1 1 1h4c.552 0 1-.448 1-1 0-.552-.448-1-1-1h-4c-.552 0-1 .448-1 1z"/><path d="m12 46h4c.552 0 1-.448 1-1 0-.552-.448-1-1-1h-4c-.552 0-1 .448-1 1 0 .552.448 1 1 1z"/><path d="m26 40h-2c-.552 0-1 .448-1 1 0 .552.448 1 1 1h2c.552 0 1-.448 1-1 0-.552-.448-1-1-1z"/><path d="m26 44h-2c-.552 0-1 .448-1 1 0 .552.448 1 1 1h2c.552 0 1-.448 1-1 0-.552-.448-1-1-1z"/><path d="m12 50h4c.552 0 1-.448 1-1 0-.552-.448-1-1-1h-4c-.552 0-1 .448-1 1 0 .552.448 1 1 1z"/><path d="m12 54h4c.552 0 1-.448 1-1 0-.552-.448-1-1-1h-4c-.552 0-1 .448-1 1 0 .552.448 1 1 1z"/><path d="m26 48h-2c-.552 0-1 .448-1 1 0 .552.448 1 1 1h2c.552 0 1-.448 1-1 0-.552-.448-1-1-1z"/><path d="m27 53c0-.552-.448-1-1-1h-2c-.552 0-1 .448-1 1 0 .552.448 1 1 1h2c.552 0 1-.448 1-1z"/></g></svg>