<svg id="Capa_1" enable-background="new 0 0 512 512" height="512" viewBox="0 0 512 512" width="512" xmlns="http://www.w3.org/2000/svg"><g><path d="m45.5 297.5v80.333c0 52.407 42.387 96.667 94.667 96.667h230.667c52.224 0 94.667-44.215 94.667-96.667v-80.333c-12.848 0-391.55 0-420.001 0z" fill="#e1f1fd"/><path d="m255.5 297.5v177h115.333c52.224 0 94.667-44.215 94.667-96.667v-80.333c-4.726 0-208.762 0-210 0z" fill="#cbe5fd"/><path d="m45.5 172.5h45v30h-45z" fill="#f4dc57"/><g fill="#3d6c84"><path d="m60.5 257.5h-30v-250h165v70h-30v-40h-105z"/><path d="m135.5 459.5h30v45h-30z"/><path d="m345.5 459.5h30v45h-30z"/></g><path d="m0 247.5v60h512v-60c-17.137 0-494.278 0-512 0z" fill="#a6d3fc"/><path d="m255.5 247.5v60h256.5v-60c-8.625 0-247.637 0-256.5 0z" fill="#8ac8fa"/><path d="m240.5 127.5h-120v-21.167c0-21.446 17.386-38.833 38.833-38.833h42.334c21.447 0 38.833 17.387 38.833 38.833z" fill="#f4dc57"/><path d="m285.5 352.5h90v-113.833c0-11.672-9.495-21.167-21.167-21.167h-47.666c-11.672 0-21.167 9.495-21.167 21.167z" fill="#f4dc57"/><circle cx="450.5" cy="67.5" fill="#e1f1fd" r="45"/><circle cx="330.5" cy="112.5" fill="#e1f1fd" r="30"/><path d="m354.333 217.5h-23.833v135h45v-113.833c0-11.672-9.495-21.167-21.167-21.167z" fill="#eec442"/><path d="m201.667 67.5h-21.167v60h60v-21.167c0-21.446-17.386-38.833-38.833-38.833z" fill="#eec442"/></g></svg>