<?xml version="1.0" encoding="iso-8859-1"?>
<!-- Generator: Adobe Illustrator 19.0.0, SVG Export Plug-In . SVG Version: 6.00 Build 0)  -->
<svg version="1.1" id="Capa_1" xmlns="http://www.w3.org/2000/svg" xmlns:xlink="http://www.w3.org/1999/xlink" x="0px" y="0px"
	 viewBox="0 0 496 496" style="enable-background:new 0 0 496 496;" xml:space="preserve">
<path style="fill:#AAB2BD;" d="M448,272c0-4.424-3.576-8-8-8s-8,3.576-8,8v200h16V272z"/>
<g>
	<circle style="fill:#CCD1D9;" cx="440" cy="256" r="24"/>
	<path style="fill:#CCD1D9;" d="M64,272c0-4.424-3.576-8-8-8s-8,3.576-8,8v200h16V272z"/>
	<path style="fill:#CCD1D9;" d="M416,472v8c0,8.88-7.12,16-16,16H96c-8.88,0-16-7.12-16-16v-8h48h48h48h48h48h48H416z"/>
</g>
<path style="fill:#AAB2BD;" d="M384,472v8c0,8.88-7.12,16-16,16h32c8.88,0,16-7.12,16-16v-8H384z"/>
<polygon style="fill:#E6E9ED;" points="416,304 392,304 368,304 344,304 320,304 272,304 224,304 176,304 152,304 128,304 104,304 
	80,304 48,304 48,472 80,472 128,472 176,472 224,472 272,472 320,472 368,472 416,472 448,472 448,304 "/>
<rect x="408" y="304" style="fill:#CCD1D9;" width="40" height="168"/>
<path style="fill:#D3374E;" d="M392,248v56h-24h-24v-64.16C359.04,245.128,375.2,248,392,248z"/>
<path style="fill:#DA4453;" d="M392,144v104c-16.8,0-32.96-2.872-48-8.16c-55.92-19.76-96-73.04-96-135.84v-8V0
	C327.52,0,392,64.488,392,144z"/>
<path style="fill:#BC2E49;" d="M360,248v56h8h24v-56c-11,0-21.68-1.344-32-3.68V248z"/>
<path style="fill:#D3374E;" d="M248,0v3.696C312.104,18.264,360,75.504,360,144v100.32c10.32,2.336,21,3.68,32,3.68V144
	C392,64.488,327.52,0,248,0z"/>
<path style="fill:#ED5565;" d="M248,96v8c0,62.808-40.08,116.088-96,135.84c-15.04,5.28-31.2,8.16-48,8.16V144
	C104,64.488,168.48,0,248,0V96z"/>
<g>
	<path style="fill:#DA4453;" d="M232.016,0.936c0,0-0.008,0-0.016,0c5.448,0.6,10.76,1.608,16,2.8V0
		c-4.176,0-8.296,0.272-12.392,0.624C234.416,0.736,233.2,0.808,232.016,0.936z"/>
	<path style="fill:#DA4453;" d="M152,239.84V304h-24h-24v-56C120.8,248,136.96,245.128,152,239.84z"/>
</g>
<path style="fill:#5D9CEC;" d="M344,239.84V304h-24h-48h-48h-48h-24v-64.16c55.92-19.76,96-73.04,96-135.84
	C248,166.808,288.08,220.088,344,239.84z"/>
<g>
	<rect x="72" y="304" style="fill:#CCD1D9;" width="16" height="168"/>
	<rect x="120" y="304" style="fill:#CCD1D9;" width="16" height="168"/>
	<rect x="168" y="304" style="fill:#CCD1D9;" width="16" height="168"/>
	<rect x="216" y="304" style="fill:#CCD1D9;" width="16" height="168"/>
	<rect x="312" y="304" style="fill:#CCD1D9;" width="16" height="168"/>
	<rect x="264" y="304" style="fill:#CCD1D9;" width="16" height="168"/>
	<rect x="360" y="304" style="fill:#CCD1D9;" width="16" height="168"/>
</g>
<circle style="fill:#E6E9ED;" cx="56" cy="256" r="24"/>
<g>
</g>
<g>
</g>
<g>
</g>
<g>
</g>
<g>
</g>
<g>
</g>
<g>
</g>
<g>
</g>
<g>
</g>
<g>
</g>
<g>
</g>
<g>
</g>
<g>
</g>
<g>
</g>
<g>
</g>
</svg>
