<svg id="color" height="512" viewBox="0 0 24 24" width="512" xmlns="http://www.w3.org/2000/svg"><path d="m1 24c-.553 0-1-.448-1-1v-18.818c0-2.306 1.876-4.182 4.182-4.182 1.117 0 2.167.435 2.957 1.225l1.318 1.318c.391.39.391 1.023 0 1.414s-1.023.391-1.414 0l-1.318-1.318c-.413-.412-.96-.639-1.543-.639-1.203 0-2.182.979-2.182 2.182v18.818c0 .552-.447 1-1 1z" fill="#607d8b"/><path d="m8.25 7.5c-.192 0-.384-.073-.53-.22l-.5-.5c-1.119-1.12-1.119-2.941 0-4.061 1.084-1.085 2.977-1.085 4.061 0l.5.5c.293.293.293.768 0 1.061l-3 3c-.147.147-.339.22-.531.22z" fill="#607d8b"/><path d="m4.182 0c-2.306 0-4.182 1.876-4.182 4.182v18.818c0 .552.447 1 1 1 .021 0 .042-.001.063-.002v-18.783s-.466-3.18 1.898-4.063c.362-.135.712-.192 1.046-.192 1.854 0 3.213 1.76 3.213 1.76.246-.246.533-.436.843-.571l-.924-.924c-.79-.79-1.84-1.225-2.957-1.225z" fill="#546d79"/><path d="m9.25 1.906c-.407 0-.813.081-1.187.243-.31.134-.598.325-.843.571l3.155 2.966 1.405-1.406c.293-.293.293-.768 0-1.061l-.5-.5c-.542-.542-1.286-.813-2.03-.813z" fill="#546d79"/><path d="m20.5 17h-4c-.553 0-1-.448-1-1v-1.881c0-1.451.978-2.784 2.401-3.061 1.915-.372 3.599 1.092 3.599 2.942v2c0 .552-.447 1-1 1z" fill="#ffcc80"/><path d="m23.25 24h-9.5c-.414 0-.75-.336-.75-.75v-.5c0-2.068 1.683-3.75 3.75-3.75h3.5c2.067 0 3.75 1.682 3.75 3.75v.5c0 .414-.336.75-.75.75z" fill="#ffcc80"/><path d="m18.5 11c-.196 0-.396.019-.598.058-1.424.277-2.401 1.61-2.401 3.061v1.881c0 .552.447 1 1 1h2z" fill="#deb26f"/><path d="m18.5 19h-1.75c-2.067 0-3.75 1.682-3.75 3.75v.5c0 .414.336.75.75.75h4.75z" fill="#deb26f"/><path d="m15.999 7.25c-.15 0-.303-.034-.446-.105l-1.5-.75c-.494-.247-.694-.848-.447-1.342.248-.494.848-.695 1.342-.447l1.5.75c.494.247.694.848.447 1.342-.176.35-.529.552-.896.552z" fill="#cfd8dc"/><path d="m13.605 5.053c-.247.494-.047 1.095.447 1.342l1.5.75c.144.072.296.105.446.105.367 0 .72-.202.895-.553.011-.022.021-.044.03-.066z" fill="#b4bcc0"/><path d="m13.25 9.75c-.256 0-.512-.098-.707-.293l-.5-.5c-.391-.391-.391-1.023 0-1.414s1.023-.391 1.414 0l.5.5c.391.391.391 1.023 0 1.414-.195.195-.451.293-.707.293z" fill="#cfd8dc"/><path d="m12.043 7.543c-.391.391-.391 1.023 0 1.414l.5.5c.195.195.451.293.707.293s.512-.098.707-.293z" fill="#b4bcc0"/><path d="m10.751 12.5c-.367 0-.72-.202-.895-.553l-.75-1.5c-.248-.494-.047-1.094.447-1.342s1.094-.046 1.342.447l.75 1.5c.247.494.047 1.095-.447 1.342-.144.072-.297.106-.447.106z" fill="#cfd8dc"/><path d="m9.553 9.105c-.494.247-.694.848-.447 1.342l.75 1.5c.176.351.528.553.895.553.15 0 .303-.034.446-.105.013-.007.027-.014.04-.021z" fill="#b4bcc0"/></svg>