<svg id="Layer_1" enable-background="new 0 0 256 256" height="512" viewBox="0 0 256 256" width="512" xmlns="http://www.w3.org/2000/svg"><g><g><path d="m208.5 244v-232c0-2.209-1.791-4-4-4h-153c-2.209 0-4 1.791-4 4v232c0 2.209 1.791 4 4 4h153c2.209 0 4-1.791 4-4z" fill="#4671c6"/></g><g><path d="m196.5 248h-137c-1.105 0-2-.895-2-2v-225c0-1.105.895-2 2-2h137c1.105 0 2 .895 2 2v225c0 1.105-.895 2-2 2z" fill="#a4c9ff"/></g><g><path d="m74.567 90.888v-54.021c0-2.209 1.791-4 4-4h98.867c2.209 0 4 1.791 4 4v54.021c0 2.209-1.791 4-4 4h-98.867c-2.209 0-4-1.791-4-4z" fill="#e0ebfc"/></g><g><path d="m168.67 79.084c-.279-.637-.799-1.14-1.419-1.454l-37.846-19.102c5.387-1.84 8.694-8.207 5.343-14.542-.75-1.418-1.925-2.587-3.344-3.334-7.503-3.954-15.056 1.425-15.056 8.535 0 2.591 3.227 4.429 5.884 1.71.236-.242.373-.582.305-.914-.668-3.241 2.86-5.974 6.144-3.765.2.134.378.313.513.513 2.073 3.088-.218 6.386-3.19 6.217-1.541-.088-2.834 1.145-2.834 2.689v2.813l-33.89 18.917c-2.843 1.587-3.528 5.495-.589 8.282.475.451 1.427.793 2.082.793h73.583c3.369.001 6.036-3.421 4.314-7.358zm-72.179 1.252 29.71-16.584 32.857 16.584z" fill="#f9a7a7"/></g><g><circle cx="77.286" cy="139.305" fill="#f9cfcf" r="8.985"/></g><g><path d="m177.434 96.888h-98.868c-3.309 0-6-2.691-6-6v-54.021c0-3.309 2.691-6 6-6h98.867c3.309 0 6 2.691 6 6v54.021c.001 3.309-2.691 6-5.999 6zm-98.868-62.021c-1.103 0-2 .897-2 2v54.021c0 1.103.897 2 2 2h98.867c1.103 0 2-.897 2-2v-54.021c0-1.103-.897-2-2-2z" fill="#3762cc"/></g><g><path d="m77.286 150.29c-6.058 0-10.985-4.928-10.985-10.985s4.928-10.985 10.985-10.985 10.985 4.928 10.985 10.985-4.927 10.985-10.985 10.985zm0-17.971c-3.852 0-6.985 3.134-6.985 6.985s3.134 6.985 6.985 6.985 6.985-3.133 6.985-6.985-3.133-6.985-6.985-6.985z" fill="#3762cc"/></g><g><path d="m204.5 250h-153c-3.309 0-6-2.691-6-6v-232c0-3.309 2.691-6 6-6h153c3.309 0 6 2.691 6 6v232c0 3.309-2.691 6-6 6zm-153-240c-1.103 0-2 .897-2 2v232c0 1.103.897 2 2 2h153c1.103 0 2-.897 2-2v-232c0-1.103-.897-2-2-2z" fill="#3762cc"/></g><g><path d="m196.5 250h-137c-2.206 0-4-1.794-4-4v-225c0-2.206 1.794-4 4-4h137c2.206 0 4 1.794 4 4v225c0 2.206-1.794 4-4 4zm-137-229v225h137.003l-.003-225z" fill="#3762cc"/></g></g></svg>