<?xml version="1.0" encoding="iso-8859-1"?>
<!-- Generator: Adobe Illustrator 22.0.0, SVG Export Plug-In . SVG Version: 6.00 Build 0)  -->
<svg xmlns="http://www.w3.org/2000/svg" xmlns:xlink="http://www.w3.org/1999/xlink" version="1.1" id="Capa_1" x="0px" y="0px" viewBox="0 0 512 512" style="enable-background:new 0 0 512 512;" xml:space="preserve" width="512" height="512">
<g>
	<path d="M437.02,74.98C388.667,26.629,324.38,0,256,0S123.333,26.629,74.98,74.98C26.629,123.333,0,187.62,0,256   s26.629,132.667,74.98,181.02C123.333,485.371,187.62,512,256,512s132.667-26.629,181.02-74.98C485.371,388.667,512,324.38,512,256   S485.371,123.333,437.02,74.98z M256,482C131.383,482,30,380.617,30,256S131.383,30,256,30s226,101.383,226,226   S380.617,482,256,482z"/>
	<path d="M256,60C147.925,60,60,147.925,60,256s87.925,196,196,196s196-87.925,196-196S364.075,60,256,60z M351.52,330.307   c13.46-17.23,21.896-37.605,24.562-59.307h45.233c-3.107,34.526-16.824,66.036-37.865,91.236L351.52,330.307z M376.071,241   c-2.751-22.154-11.515-42.467-24.602-59.255l31.981-31.981c21.041,25.201,34.758,56.711,37.865,91.236H376.071z M128.551,362.236   C107.509,337.036,93.792,305.526,90.685,271h45.233c2.666,21.701,11.102,42.076,24.562,59.307L128.551,362.236z M135.929,241   H90.685c3.107-34.526,16.824-66.036,37.866-91.237l31.981,31.981C147.444,198.532,138.681,218.846,135.929,241z M181.745,160.531   l-31.981-31.981c25.201-21.042,56.711-34.758,91.236-37.865v45.244C218.846,138.681,198.533,147.444,181.745,160.531z M271,90.685   c34.526,3.107,66.036,16.824,91.237,37.866l-31.981,31.981c-16.788-13.087-37.102-21.851-59.256-24.602V90.685z M149.763,383.449   l52.496-52.496l-10.606-10.606C174.465,303.158,165,280.307,165,256c0-50.178,40.822-91,91-91s91,40.822,91,91   c0,24.308-9.465,47.159-26.653,64.347l-10.607,10.606l52.496,52.496C333.428,407.503,296.377,422,256,422   S178.572,407.503,149.763,383.449z"/>
	<path d="M256,211c-24.813,0-45,20.187-45,45c0,5.193,0.885,10.299,2.631,15.171L256,389.52l42.37-118.348   c1.746-4.875,2.63-9.979,2.63-15.172C301,231.187,280.813,211,256,211z M270.125,261.06L256,300.514l-14.125-39.457   c-0.581-1.619-0.875-3.32-0.875-5.057c0-8.271,6.729-15,15-15s15,6.729,15,15C271,257.736,270.706,259.438,270.125,261.06z"/>
</g>















</svg>
