<svg height="512pt" viewBox="0 0 512 512" width="512pt" xmlns="http://www.w3.org/2000/svg"><path d="m64 0h384v512h-384zm0 0" fill="#ecce93"/><path d="m64 448h384v64h-384zm0 0" fill="#e5bd76"/><path d="m384 512h-256v-448h56.65625c9.296875-12.207031 30.640625-32 71.34375-32 41.265625 0 65.007812 20.414062 75.152344 32h52.847656zm0 0" fill="#c59969"/><path d="m128 448h256v64h-256zm0 0" fill="#ba8a5a"/><path d="m0 480h512v32h-512zm0 0" fill="#77959e"/><path d="m208 96h32v32h-32zm0 0" fill="#fff"/><path d="m272 96h32v32h-32zm0 0" fill="#fff"/><path d="m336 320c-8.832031 0-16-7.167969-16-16v-64c0-8.832031 7.167969-16 16-16s16 7.167969 16 16v64c0 8.832031-7.167969 16-16 16zm0 0" fill="#57565c"/></svg>