<?xml version="1.0" encoding="iso-8859-1"?>
<!-- Generator: Adobe Illustrator 19.0.0, SVG Export Plug-In . SVG Version: 6.00 Build 0)  -->
<svg version="1.1" id="Capa_1" xmlns="http://www.w3.org/2000/svg" xmlns:xlink="http://www.w3.org/1999/xlink" x="0px" y="0px"
	 viewBox="0 0 496 496" style="enable-background:new 0 0 496 496;" xml:space="preserve">
<polygon style="fill:#E6E9ED;" points="248,60 24,168.4 24,468 48.672,468 72,468 232,468 280,468 423.92,468 441.336,468 472,468 
	472,168.4 "/>
<g>
	<path style="fill:#353B44;" d="M432,284v136.08h-0.08c0-13.28-10.72-24-24-24H392h-16v-28.72v-0.08c23.44-9.52,40-32.488,40-59.28
		h-0.08l0.08-24L432,284L432,284z"/>
	<path style="fill:#353B44;" d="M288,308.08c0,26.88,16.56,49.84,40,59.28L327.92,396L312,396.08h-16c-13.28,0-24,10.72-24,24V284
		h16v24V308.08z"/>
</g>
<path style="fill:#656D78;" d="M400,284h-32h-32h-32h-16h-16v-8c0-44.16,35.76-80,80-80c44.16,0,80,35.84,80,80v8h-16H400z"/>
<path style="fill:#434A54;" d="M352,196c-5.488,0-10.832,0.552-16.016,1.608C372.496,205.024,400,237.32,400,276v8h16h16v-8
	C432,231.84,396.16,196,352,196z"/>
<path style="fill:#A0D468;" d="M312,396.08v40h80v-40h15.92c13.28,0,24,10.72,24,24H432V460h-0.08c0,4.4-3.52,8-8,8H280
	c-4.4,0-8-3.6-8-8v-39.92c0-13.28,10.72-24,24-24L312,396.08L312,396.08z"/>
<path style="fill:#EAC6BB;" d="M376,396.08h16v40h-80v-40l15.92-0.08l0.08-28.64c7.36,3.04,15.44,4.64,23.92,4.64
	c8.552,0,16.64-1.68,24.08-4.72v0.08V396.08z"/>
<path style="fill:#D3B1A9;" d="M375.92,396.08c6.216,0,11.824,2.416,16.08,6.272v-6.272h-16H375.92z"/>
<path style="fill:#8CC152;" d="M431.92,420.08c0-13.28-10.72-24-24-24H392v6.272c4.832,4.392,7.92,10.664,7.92,17.728H400V460h-0.08
	c0,4.4-3.52,8-8,8h32c4.48,0,8-3.6,8-8H432v-39.92L431.92,420.08L431.92,420.08z"/>
<path style="fill:#EAC6BB;" d="M304,284h32h32h32h16l-0.08,24H416c0,26.8-16.56,49.76-40,59.28c-7.44,3.04-15.52,4.72-24.08,4.72
	c-8.488,0-16.56-1.6-23.92-4.64c-23.44-9.44-40-32.4-40-59.28V308v-24H304z"/>
<path style="fill:#D3B1A9;" d="M416,284h-16h-16l-0.08,24H384c0,26.8-16.56,49.76-40,59.28c-2.624,1.072-5.36,1.904-8.144,2.632
	c5.128,1.328,10.496,2.088,16.064,2.088c8.552,0,16.64-1.68,24.08-4.72c23.44-9.52,40-32.488,40-59.28h-0.08L416,284z"/>
<path style="fill:#5D9CEC;" d="M167.92,404l16.08-7.92h24c17.68,0,32,14.32,32,32V460c0,4.4-3.6,8-8,8H72c-4.4,0-8-3.6-8-8v-31.92
	c0-17.68,14.32-32,32.08-32l23.768-0.08H120l15.92,8l16-8L167.92,404z"/>
<path style="fill:#4A89DC;" d="M208,396.08h-24l-1.408,0.696c14.512,3.04,25.408,15.88,25.408,31.304V460c0,4.4-3.6,8-8,8h32
	c4.4,0,8-3.6,8-8v-31.92C240,410.4,225.68,396.08,208,396.08z"/>
<path style="fill:#F5F7FA;" d="M184,363.44v32.64L167.92,404l-16-8l-16,8L120,396h-0.16l0.16-32.56c9.36,5.448,20.32,8.56,32,8.56
	C163.6,372,174.56,368.88,184,363.44z"/>
<path style="fill:#EAC6BB;" d="M120,363.44c-19.12-11.04-31.92-31.76-31.92-55.36L88,283.92L103.92,268c0,0,23.28,8,48.08,8
	s47.92-8,47.92-8l16,16v24v0.08c0,23.6-12.808,44.24-31.92,55.36c-9.44,5.448-20.4,8.56-32,8.56
	C140.32,372,129.36,368.88,120,363.44z"/>
<path style="fill:#D3B1A9;" d="M199.92,268c0,0-6.384,2.192-16,4.288V308v0.08c0,23.6-12.808,44.24-31.92,55.36
	c-4.96,2.856-10.36,5.032-16.032,6.496C141.096,371.248,146.464,372,152,372c11.6,0,22.56-3.12,32-8.56
	c19.12-11.12,31.92-31.76,31.92-55.36V308v-24L199.92,268z"/>
<path style="fill:#965353;" d="M87.92,260c0-30.96,25.04-56,56-56h40v24c17.68,0,32,14.32,32,32v24l-16-16c0,0-23.128,8-47.92,8
	s-48.08-8-48.08-8L88,283.92l-0.08-23.76V260z"/>
<path style="fill:#844747;" d="M183.92,228v-24h-32v40c17.68,0,32,6.32,32,24v4.288c9.616-2.096,16-4.288,16-4.288l16,16v-24
	C215.92,242.32,201.6,228,183.92,228z"/>
<polygon style="fill:#AAB2BD;" points="120,52 64,52 56,52 56,28 128,28 128,52 "/>
<polygon style="fill:#656D78;" points="120,52 120,89.92 64,117.04 64,52 "/>
<polygon style="fill:#5D9CEC;" points="496,148 496,180 472,168.4 248,60 24,168.4 0,180 0,148 64,117.04 120,89.92 248,28 "/>
<polygon style="fill:#4A89DC;" points="464,164.52 472,168.4 496,180 496,148 464,132.512 "/>
<g>
	<path style="fill:#434A54;" d="M399.976,268c-4.424,0-8,3.576-8,8v8H400h7.976v-8C407.976,271.576,404.4,268,399.976,268z"/>
	<path style="fill:#434A54;" d="M367.976,268c-4.424,0-8,3.576-8,8v8H368h7.976v-8C375.976,271.576,372.4,268,367.976,268z"/>
	<path style="fill:#434A54;" d="M335.976,268c-4.424,0-8,3.576-8,8v8H336h7.976v-8C343.976,271.576,340.4,268,335.976,268z"/>
	<path style="fill:#434A54;" d="M303.976,268c-4.424,0-8,3.576-8,8v8H304h7.976v-8C311.976,271.576,308.4,268,303.976,268z"/>
</g>
<path style="fill:#353B44;" d="M399.976,268c-0.144,0-0.256,0.072-0.4,0.08c0.256,2.608,0.424,5.248,0.424,7.92v8h7.976v-8
	C407.976,271.576,404.4,268,399.976,268z"/>
<g>
</g>
<g>
</g>
<g>
</g>
<g>
</g>
<g>
</g>
<g>
</g>
<g>
</g>
<g>
</g>
<g>
</g>
<g>
</g>
<g>
</g>
<g>
</g>
<g>
</g>
<g>
</g>
<g>
</g>
</svg>
