<svg id="_x31__x2C_5" enable-background="new 0 0 24 24" height="512" viewBox="0 0 24 24" width="512" xmlns="http://www.w3.org/2000/svg"><g><path d="m12 23.25c-3.452 0-6.25-2.798-6.25-6.25v-14.25c0-1.105.895-2 2-2h8.5c1.105 0 2 .895 2 2v14.25c0 3.452-2.798 6.25-6.25 6.25z" fill="#607d8b"/></g><g><path d="m12 24c-3.86 0-7-3.141-7-7v-14.25c0-1.517 1.233-2.75 2.75-2.75h8.5c1.517 0 2.75 1.233 2.75 2.75v14.25c0 3.859-3.14 7-7 7zm-4.25-22.5c-.689 0-1.25.561-1.25 1.25v14.25c0 3.032 2.467 5.5 5.5 5.5s5.5-2.468 5.5-5.5v-14.25c0-.689-.561-1.25-1.25-1.25z"/></g><g><path d="m13.75 6.25h-3.5c-.414 0-.75-.336-.75-.75s.336-.75.75-.75h3.5c.414 0 .75.336.75.75s-.336.75-.75.75z"/></g><g><path d="m13.75 20h-3.5c-.414 0-.75-.336-.75-.75s.336-.75.75-.75h3.5c.414 0 .75.336.75.75s-.336.75-.75.75z"/></g><g><path d="m12 8c-.414 0-.75-.336-.75-.75v-3.5c0-.414.336-.75.75-.75s.75.336.75.75v3.5c0 .414-.336.75-.75.75z"/></g><g><path d="m14.25 14.75c-.192 0-.384-.073-.53-.22-.293-.293-.293-.768 0-1.061l.97-.97-.97-.97c-.293-.293-.293-.768 0-1.061s.768-.293 1.061 0l1.5 1.5c.293.293.293.768 0 1.061l-1.5 1.5c-.147.148-.339.221-.531.221z"/></g><g><path d="m9.75 14.75c-.192 0-.384-.073-.53-.22l-1.5-1.5c-.293-.293-.293-.768 0-1.061l1.5-1.5c.293-.293.768-.293 1.061 0s.293.768 0 1.061l-.97.97.97.97c.293.293.293.768 0 1.061-.147.146-.339.219-.531.219z"/></g></svg>