<svg id="Flat" height="512" viewBox="0 0 512 512" width="512" xmlns="http://www.w3.org/2000/svg"><circle cx="256" cy="200" fill="#ecae49" r="176"/><g fill="#d08b29"><rect height="96" rx="8" width="16" x="248" y="48"/><rect height="40" rx="8" transform="matrix(.5 -.866 .866 .5 -45.205 189.703)" width="16" x="133.685" y="114"/><rect height="16" rx="8" transform="matrix(.866 -.5 .5 .866 -17.387 203.11)" width="40" x="350.315" y="126"/><path d="m163.658 109.736a11.544 11.544 0 0 1 -1.75-18.736 144.487 144.487 0 0 1 21.107-15.159 142.61 142.61 0 0 1 25.564-11.841 11.554 11.554 0 0 1 15.421 10.859v49.741a11.53 11.53 0 0 1 -17.295 9.985z"/><path d="m288 74.9a11.544 11.544 0 0 1 15.354-10.885 144.507 144.507 0 0 1 23.682 10.7 142.657 142.657 0 0 1 23.031 16.223 11.554 11.554 0 0 1 -1.691 18.783l-43.076 24.868a11.53 11.53 0 0 1 -17.3-9.989z"/></g><path d="m72 232h368v240h-368z" fill="#58646f"/><path d="m56 168h400v80h-400z" fill="#58646f"/><path d="m56 456h400v32h-400z" fill="#48525b"/><path d="m88 200h16v16h-16z" fill="#ecae49"/><path d="m120 200h296v16h-296z" fill="#ecae49"/><path d="m128 312h96v144h-96z" fill="#0093ba"/><path d="m224 336h-40v-24h-16v24h-40v16h40v104h16v-104h40z" fill="#057fa7"/><path d="m168 272h16v16h-16z" fill="#ef5349"/><path d="m328 272h16v16h-16z" fill="#ef5349"/><path d="m288 312h96v144h-96z" fill="#0093ba"/><path d="m384 336h-40v-24h-16v24h-40v16h40v104h16v-104h40z" fill="#057fa7"/><path d="m72 248h368v16h-368z" fill="#48525b"/></svg>