<svg height="512pt" viewBox="-27 0 512 512" width="512pt" xmlns="http://www.w3.org/2000/svg"><path d="m31.726562 315.023438h393.90625v189.617187h-393.90625zm0 0" fill="#c97f4c"/><g fill="#aa6344"><path d="m55.441406 332.914062h15.488282v163.828126h-15.488282zm0 0"/><path d="m94.101562 332.914062h15.484376v163.828126h-15.484376zm0 0"/><path d="m132.757812 332.914062h15.488282v163.828126h-15.488282zm0 0"/><path d="m171.417969 332.914062h15.484375v163.828126h-15.484375zm0 0"/><path d="m210.078125 332.914062h15.484375v163.828126h-15.484375zm0 0"/><path d="m248.734375 332.914062h15.488281v163.828126h-15.488281zm0 0"/><path d="m287.394531 332.914062h15.488281v163.828126h-15.488281zm0 0"/><path d="m326.054688 332.914062h15.484374v163.828126h-15.484374zm0 0"/><path d="m364.710938 332.914062h15.488281v163.828126h-15.488281zm0 0"/><path d="m31.726562 320.683594v18.066406h285.957032c47.765625 0 86.492187 38.71875 86.492187 86.484375v79.40625h21.457031v-183.957031zm0 0"/></g><path d="m101.375 486.230469 79.65625-178.644531 46.335938 2.988281-93.613282 168.683593c-4.496094 8.101563-12.042968 14.070313-20.964844 16.578126l-2.5.703124c-6.140624 1.726563-11.511718-4.484374-8.914062-10.308593zm0 0" fill="#fecbaa"/><path d="m425.457031 320.683594h-393.554687c-17.617188 0-31.902344-14.285156-31.902344-31.90625 0-1.441406 1.171875-2.613282 2.613281-2.613282h452.136719c1.441406 0 2.613281 1.171876 2.613281 2.613282-.003906 17.621094-14.289062 31.90625-31.90625 31.90625zm0 0" fill="#c97f4c"/><path d="m115.085938 248.054688-3.480469-88.773438c-.035157-.90625-1.339844-1.007812-1.511719-.117188l-20.335938 103.726563c-2.652343 13.519531-14.503906 23.273437-28.28125 23.273437h-30.089843l27.527343-23.996093c1.050782-.914063 1.757813-2.152344 2.011719-3.519531l21.949219-117.824219c3.78125-20.292969 17.523438-37.316407 36.558594-45.292969l17.121094-7.175781c19.714843-8.261719 41.941406-8.175781 61.59375.230469l16.816406 7.195312c18.355468 7.855469 31.734375 24.160156 35.851562 43.695312l25.910156 122.878907c.34375 1.625 1.222657 3.09375 2.5 4.160156l23.4375 19.648437h-27.761718c-12.691406 0-23.773438-8.585937-26.9375-20.875l-26.628906-103.355468c-.355469-1.367188-2.371094-1.113282-2.371094.300781v85.820313l-51.9375 7.945312zm0 0" fill="#fedfc5"/><path d="m104.625 323.53125 55.464844 142.648438-15.109375 38.191406h3.675781c9.773438 0 19.066406-4.222656 25.492188-11.585938l13-14.894531c3.085937-3.535156 4.292968-8.335937 3.246093-12.910156l-44.578125-164.15625zm0 0" fill="#fedfc5"/><path d="m239.144531 325.316406v27.644532c0 3.007812-1.851562 5.703124-4.667969 6.761718-10.0625 3.785156-23.515624 7.921875-39.730468 10.433594-5.320313.835938-10.933594 1.496094-16.824219 1.894531-4.078125.292969-8.300781.457031-12.632813.488281-30.890624.191407-55.738281-6.816406-71.707031-12.816406-2.808593-1.058594-4.648437-3.753906-4.648437-6.753906v-26.363281c0-3.914063.671875-7.808594 2.003906-11.5l24.148438-67.046875h103.878906l18.9375 68.164062c.824218 2.960938 1.242187 6.019532 1.242187 9.09375zm0 0" fill="#e4f4ff"/><path d="m93.15625 166.566406-18.886719 96.324219c-2.648437 13.519531-14.5 23.273437-28.28125 23.273437h15.488281c13.777344 0 25.628907-9.753906 28.28125-23.273437l20.335938-103.726563c-.003906 0-13.386719-3.03125-16.9375 7.402344zm0 0" fill="#fecbaa"/><path d="m279.222656 266.519531c-1.273437-1.070312-2.152344-2.535156-2.496094-4.164062l-25.910156-122.878907c-4.117187-19.535156-17.496094-35.839843-35.851562-43.695312l-16.816406-7.191406c-12.347657-5.285156-25.714844-7.277344-38.835938-5.980469 7.96875.78125 15.847656 2.769531 23.351562 5.980469l16.816407 7.191406c18.355469 7.855469 31.734375 24.160156 35.851562 43.695312l25.335938 120.164063c.714843 3.386719 2.546875 6.4375 5.199219 8.660156l21.3125 17.863281h15.484374zm0 0" fill="#fecbaa"/><path d="m203.480469 173.550781v74.503907h15.484375v-85.820313s-15.484375.1875-15.484375 11.316406zm0 0" fill="#fecbaa"/><path d="m137.523438 56.84375v-29.574219c0-15.058593 12.207031-27.269531 27.269531-27.269531h6.3125c15.0625 0 27.273437 12.210938 27.273437 27.269531v29.574219c0 15.0625-12.210937 27.269531-27.273437 27.269531h-6.3125c-15.0625 0-27.269531-12.210937-27.269531-27.269531zm0 0" fill="#fedfc5"/><path d="m171.105469 0h-6.3125c-2.890625 0-5.679688.453125-8.296875 1.289062 11.003906 3.511719 18.976562 13.8125 18.976562 25.980469v29.574219c0 12.167969-7.972656 22.46875-18.976562 25.980469 2.617187.835937 5.402344 1.289062 8.296875 1.289062h6.3125c15.0625 0 27.269531-12.210937 27.269531-27.269531v-29.574219c0-15.058593-12.207031-27.269531-27.269531-27.269531zm0 0" fill="#fecbaa"/><path d="m192.886719 366.101562c1.058593 1.179688 1.675781 2.59375 1.859375 4.058594-5.320313.832032-10.933594 1.492188-16.824219 1.890625-16.699219-20.726562-17.902344-38.914062-17.027344-48.238281 1.050781-11.136719 6.003907-23.40625 6.5625-24.765625 2.53125-6.164063 4.78125-9.816406 6.765625-13.039063 1.238282-2.027343 2.316406-3.773437 3.324219-5.953124 3.855469-8.359376 4.585937-18.722657 2.175781-30.808594-.078125-.394532-.128906-.792969-.128906-1.1875h15.429688c2.632812 14.574218 1.414062 27.492187-3.632813 38.394531-1.382813 3-2.796875 5.308594-4.167969 7.535156-1.761718 2.871094-3.589844 5.839844-5.65625 10.863281-.050781.113282-4.628906 11.308594-5.484375 20.394532-1.699219 18.0625 11.179688 34.589844 16.804688 40.855468zm0 0" fill="#bddff4"/><path d="m442.574219 512h-427.789063c-4.214844 0-7.628906-3.414062-7.628906-7.628906 0-4.210938 3.414062-7.628906 7.628906-7.628906h427.789063c4.214843 0 7.628906 3.417968 7.628906 7.628906 0 4.214844-3.414063 7.628906-7.628906 7.628906zm0 0" fill="#7f4233"/><path d="m312.175781 233.476562c-3.90625-.460937-6.714843-3.984374-6.699219-7.917968.078126-17.8125 6.101563-27.132813 11.414063-35.367188 4.816406-7.457031 8.976563-13.894531 8.976563-27.433594 0-10.261718-4.566407-19.875-8.871094-27.175781-2.085938-3.535156-1.03125-8.078125 2.417968-10.304687 3.644532-2.351563 8.507813-1.199219 10.710938 2.535156 5.136719 8.710938 10.398438 15.816406 11 34.945312.566406 18.027344-6.066406 27.425782-11.414062 35.710938-4.816407 7.457031-8.976563 13.894531-8.976563 27.433594 0 4.519531-3.929687 8.121094-8.558594 7.574218zm0 0" fill="#e4f4ff"/><path d="m313.105469 107.242188c-4.214844 0-7.628907-3.414063-7.628907-7.628907 0-18.035156 6.066407-27.425781 11.414063-35.707031 4.816406-7.457031 8.976563-13.898438 8.976563-27.433594 0-4.214844 3.414062-7.628906 7.628906-7.628906s7.628906 3.414062 7.628906 7.628906c0 18.035156-6.066406 27.425782-11.414062 35.707032-4.816407 7.457031-8.976563 13.898437-8.976563 27.433593 0 4.210938-3.414063 7.628907-7.628906 7.628907zm0 0" fill="#e4f4ff"/><path d="m371.835938 233.53125c-4.214844 0-7.628907-3.414062-7.628907-7.628906 0-18.035156 6.0625-27.425782 11.414063-35.710938 1.25-1.9375 2.433594-3.765625 3.523437-5.679687 2.085938-3.660157 6.746094-4.9375 10.40625-2.851563 3.660157 2.085938 4.9375 6.742188 2.851563 10.402344-1.300782 2.28125-2.65625 4.378906-3.964844 6.40625-4.816406 7.457031-8.972656 13.894531-8.972656 27.433594 0 4.210937-3.414063 7.628906-7.628906 7.628906zm0 0" fill="#e4f4ff"/><path d="m392.226562 170.386719c-4.214843 0-7.628906-3.414063-7.628906-7.628907 0-13.535156-4.160156-19.976562-8.976562-27.433593-5.351563-8.285157-11.414063-17.675781-11.414063-35.710938 0-18.035156 6.0625-27.425781 11.414063-35.710937 4.816406-7.453125 8.976562-13.894532 8.976562-27.429688 0-4.214844 3.414063-7.628906 7.628906-7.628906 4.210938 0 7.628907 3.414062 7.628907 7.628906 0 18.03125-6.066407 27.421875-11.417969 35.707032-4.816406 7.457031-8.972656 13.894531-8.972656 27.433593 0 13.535157 4.160156 19.976563 8.972656 27.433594 5.351562 8.285156 11.417969 17.675781 11.417969 35.710937-.003907 4.214844-3.417969 7.628907-7.628907 7.628907zm0 0" fill="#e4f4ff"/><path d="m430.039062 233.53125c-4.210937 0-7.628906-3.414062-7.628906-7.628906 0-18.035156 6.066406-27.425782 11.417969-35.710938 4.816406-7.457031 8.972656-13.894531 8.972656-27.433594 0-13.535156-4.160156-19.976562-8.972656-27.433593-5.351563-8.285157-11.417969-17.675781-11.417969-35.710938 0-5.996093.65625-11.332031 2.003906-16.324219 1.101563-4.066406 5.292969-6.472656 9.355469-5.371093 4.070313 1.097656 6.472657 5.285156 5.375 9.351562-.992187 3.675781-1.476562 7.714844-1.476562 12.34375 0 13.535157 4.160156 19.976563 8.976562 27.433594 5.347657 8.285156 11.414063 17.675781 11.414063 35.710937 0 18.035157-6.066406 27.425782-11.414063 35.710938-4.816406 7.457031-8.976562 13.894531-8.976562 27.433594 0 4.210937-3.414063 7.628906-7.628907 7.628906zm0 0" fill="#e4f4ff"/><path d="m445.414062 66.945312c-1.148437 0-2.316406-.261718-3.417968-.8125-3.765625-1.890624-5.28125-6.476562-3.390625-10.242187 1.953125-3.890625 4.195312-9.617187 4.195312-19.417969 0-4.214844 3.417969-7.628906 7.628907-7.628906 4.214843 0 7.628906 3.414062 7.628906 7.628906 0 10.011719-1.847656 18.355469-5.820313 26.265625-1.339843 2.664063-4.03125 4.207031-6.824219 4.207031zm0 0" fill="#e4f4ff"/></svg>