<svg height="512" viewBox="0 0 61 60" width="512" xmlns="http://www.w3.org/2000/svg"><g id="Page-1" fill="none" fill-rule="evenodd"><g id="036---Bath" fill-rule="nonzero" transform="translate(0 -1)"><path id="Shape" d="m25 25.28v5.47c-.34-.13-.68-.27-1.03-.41-11.51-4.61-17.89-3.02-19.58-2.43-.02875161.0113906-.05913019.0181413-.09.02-1.31926007.4040676-2.71982013-.3189305-3.15450586-1.6284213-.43468574-1.3094908.25549489-2.7265107 1.55450586-3.1915787 2.64-.93 10.02-2.54 22.3 2.17z" fill="#02a9f4"/><path id="Shape" d="m57.38 33.79c-.39.15-.78.3-1.16.43v.01c-5.03 1.87-8.71 2.67-11.98 2.67-3.1791077-.0734469-6.3150752-.7522278-9.24-2v-5.48c7.41 3.04 10.61 3.48 20.54-.37.8467194-.3286843 1.8044715-.1806818 2.5124802.3882566s1.0587107 1.4723773.92 2.37c-.1387107.8976228-.7457608 1.6530591-1.5924802 1.9817434z" fill="#02a9f4"/><path id="Shape" d="m56.22 34.23-3.64 10.4c-1.2061117 3.4481912-4.0468971 6.0716078-7.58 7v4.37h-3l-2-4h-18l-2 4h-3v-4.43c-3.5335688-1.0109353-6.3287885-3.7198596-7.45-7.22l-5.25-16.42c.03086981-.0018587.06124839-.0086094.09-.02 1.69-.59 8.07-2.18 19.58 2.43.35.14.69.28 1.03.41v11.25c.0032948 1.1032019.8967981 1.9967052 2 2h6c1.1032019-.0032948 1.9967052-.8967981 2-2v-7.1c2.9249248 1.2477722 6.0608923 1.9265531 9.24 2 3.27 0 6.95-.8 11.98-2.67z" fill="#ffdc00"/><path id="Shape" d="m52.812 35.4-3.232 9.23c-1.2061117 3.4481912-4.0468971 6.0716078-7.58 7v4.37h3v-4.37c3.5331029-.9283922 6.3738883-3.5518088 7.58-7l3.64-10.4c-1.211.45-2.34.835-3.408 1.17z" fill="#fec108"/><path id="Shape" d="m17 56h3l2-4h-3z" fill="#fec108"/><path id="Shape" d="m23 50-1 2" fill="#02a9f4"/><path id="Shape" d="m40 52-1-2" fill="#02a9f4"/><circle id="Oval" cx="39" cy="22" fill="#00bcd4" r="2"/><circle id="Oval" cx="44.5" cy="7.5" fill="#00bcd4" r="3.5"/><circle id="Oval" cx="46.5" cy="17.5" fill="#00bcd4" r="2.5"/><path id="Shape" d="m35 27.81.0000126 11.19h-10.0000252l.0000126-14.5c-.001678-.3343556.1638606-.647427.4411339-.8342851.2772734-.1868582.6295895-.2227758.9388661-.0957149l8 3.31c.3767941.1547874.6220401.5226565.62.93z" fill="#f5f5f5"/><path id="Shape" d="m34.38 26.88-8-3.31c-.2685649-.1099374-.5716416-.0977875-.8305444.0332952-.2589027.1310827-.4480941.3681687-.5184556.6497048l6.349 2.627c.3767941.1547874.6220401.5226565.62.93v11.19h3.0000126l-.0000126-11.19c.0020401-.4073435-.2432059-.7752126-.62-.93z" fill="#cfd8dc"/><path id="Shape" d="m35 39v3c-.0032948 1.1032019-.8967981 1.9967052-2 2h-6c-1.1032019-.0032948-1.9967052-.8967981-2-2v-3z" fill="#00bcd4"/><path id="Shape" d="m32 39v3c-.0032948 1.1032019-.8967981 1.9967052-2 2h3c1.1032019-.0032948 1.9967052-.8967981 2-2v-3z" fill="#00838f"/><path id="Shape" d="m23 58c-.0081672 1.1011688-.8988312 1.9918328-2 2h-4c-1.1032019-.0032948-1.9967052-.8967981-2-2 .0081672-1.1011688.8988312-1.9918328 2-2h4c1.1032019.0032948 1.9967052.8967981 2 2z" fill="#f57c00"/><path id="Shape" d="m47 58c-.0081672 1.1011688-.8988312 1.9918328-2 2h-4c-1.1032019-.0032948-1.9967052-.8967981-2-2 .0081672-1.1011688.8988312-1.9918328 2-2h4c1.1032019.0032948 1.9967052.8967981 2 2z" fill="#f57c00"/><g fill="#000"><path id="Shape" d="m55.179 28.118c-9.324 3.614-12.341 3.382-19.179.626v-.936c.0002035-.8088582-.4868185-1.5382073-1.234-1.848l-8-3.312c-.5167501-.2184635-1.1018995-.2075707-1.6101608.0299738s-.8919644.6794612-1.0558392 1.2160262c-11.855-4.251-19.116-2.65-21.737-1.727-.88646443.3125733-1.61210946.9650507-2.01678968 1.8134346-.40468023.8483838-.45512818 1.8229312-.14021032 2.7085654.4976122 1.442733 1.8744737 2.3951972 3.4 2.352l4.994 15.614c1.13980819 3.557165 3.8777437 6.3764986 7.4 7.62v2.909c-1.3765475.4848523-2.2026937 1.8918441-1.9553873 3.330178s1.49595 2.4885874 2.9553873 2.485822h4c1.5408767-.0020714 2.8296164-1.1711352 2.9813805-2.7045212.1517642-1.5333861-.882805-2.9323952-2.3933805-3.2364788l1.03-2.059h16.764l1.03 2.059c-1.5105755.3040836-2.5451447 1.7030927-2.3933805 3.2364788.1517641 1.533386 1.4405038 2.7024498 2.9813805 2.7045212h4c1.4594373.0027654 2.7080809-1.0474881 2.9553873-2.485822s-.5788398-2.8453257-1.9553873-3.330178v-2.833c3.517772-1.1646959 6.296757-3.8945574 7.524-7.391l3.484-9.96c.245-.092.478-.175.728-.272 1.1931879-.4474526 2.0540427-1.5013707 2.2542962-2.7598657.2002535-1.2584951-.2909653-2.527557-1.2863409-3.3232571-.9953757-.7957-2.3414608-.9953726-3.5249553-.5228772zm-29.179 11.882h8v2c0 .5522847-.4477153 1-1 1h-6c-.5522847 0-1-.4477153-1-1zm8-12.192v1.622 8.57h-8v-13.5zm-31.907-1.782c-.13880896-.3860791-.11771583-.8116014.0585947-1.1820601.17631053-.3704586.49324206-.6551841.8804053-.7909399 2.458-.866 9.376-2.366 20.968 1.929v3.3c-6.411-2.521-13.34-4.08-19.964-2.31-.79756048.2718167-1.66506565-.1505507-1.943-.946zm19.907 31.974c0 .5522847-.4477153 1-1 1h-4c-.5522847 0-1-.4477153-1-1s.4477153-1 1-1h4c.5522847 0 1 .4477153 1 1zm23 1h-4c-.5522847 0-1-.4477153-1-1s.4477153-1 1-1h4c.5522847 0 1 .4477153 1 1s-.4477153 1-1 1zm6.637-14.7c-.9430051 2.6946036-2.9950496 4.8562215-5.637 5.938v-.238c0-.5522847-.4477153-1-1-1s-1 .4477153-1 1v5h-1.382l-2.718-5.447c-.2468713-.4942949-.8477051-.6948713-1.342-.448s-.6948713.8477051-.448 1.342l.277.553h-14.769l.277-.553c.2468713-.4942949.0462949-1.0951287-.448-1.342s-1.0951287-.0462949-1.342.448l-2.723 5.447h-1.382v-5c0-.5522847-.4477153-1-1-1s-1 .4477153-1 1v.143c-2.6247778-1.1484355-4.6284973-3.3707426-5.5-6.1l-4.934-15.436c5.685-1.407 13.006.639 18.434 2.823v10.57c0 1.6568542 1.3431458 3 3 3h6c1.6568542 0 3-1.3431458 3-3v-5.669c2.6327349 1.0045284 5.4223304 1.5357026 8.24 1.569 3.5363735-.1084217 7.0310516-.7958717 10.345-2.035zm5.381-11.441c-5.418 2.103-9.359 3.041-12.778 3.041-2.8278295-.0551996-5.6212238-.6315067-8.24-1.7v-3.3c6.855 2.662 10.535 2.718 19.9-.915.5137479-.1993542 1.0948248-.1094838 1.5243445.2357578.4295198.3452417.6422282.8934042.558 1.438-.0842281.5445959-.4525966 1.002888-.9663445 1.2022422z"/><path id="Shape" d="m10.752 31.7c-.0892117-.3629952-.3734246-.6459299-.7368182-.7335047-.36339365-.0875747-.74529058.0348333-.99006298.3173413-.24477241.2825079-.31154952.6779441-.17311882 1.0251634l3.559 11.132c.1940501.4892399.7341107.744327 1.2352358.5834394.5011251-.1608875.7917684-.6826742.6647642-1.1934394z"/><path id="Shape" d="m39 19c-1.6568542 0-3 1.3431458-3 3s1.3431458 3 3 3 3-1.3431458 3-3-1.3431458-3-3-3zm0 4c-.5522847 0-1-.4477153-1-1s.4477153-1 1-1 1 .4477153 1 1-.4477153 1-1 1z"/><path id="Shape" d="m49 7.5c0-2.48528137-2.0147186-4.5-4.5-4.5s-4.5 2.01471863-4.5 4.5 2.0147186 4.5 4.5 4.5c2.4841391-.0027556 4.4972444-2.01586091 4.5-4.5zm-7 0c0-1.38071187 1.1192881-2.5 2.5-2.5s2.5 1.11928813 2.5 2.5-1.1192881 2.5-2.5 2.5-2.5-1.11928813-2.5-2.5z"/><path id="Shape" d="m46.5 21c1.4156179 0 2.6918449-.8527476 3.2335784-2.160608s.2422883-2.8132727-.7587047-3.8142657-2.5064053-1.3004382-3.8142657-.7587047-2.160608 1.8179605-2.160608 3.2335784c0 1.9329966 1.5670034 3.5 3.5 3.5zm0-5c.8284271 0 1.5.6715729 1.5 1.5s-.6715729 1.5-1.5 1.5-1.5-.6715729-1.5-1.5.6715729-1.5 1.5-1.5z"/><path id="Shape" d="m15.188 13.392c1.1074463-.7850421 1.7791659-2.0469258 1.812-3.404-.0355751-1.36130428-.7178736-2.62413212-1.837-3.4-.743-.661-1.163-1.074-1.163-1.921s.42-1.261 1.163-1.918c.2679492-.23686708.3891774-.59869049.3180191-.94917485s-.3238925-.63638275-.663-.75000001c-.3391076-.11361726-.7130699-.03769224-.9810191.19917486-1.1167825.78615708-1.7975542 2.05282961-1.837 3.418.0408505 1.36424944.7213766 2.62972416 1.837 3.416.763.675 1.163 1.067 1.163 1.905s-.395 1.238-1.163 1.93c-1.1158309.7856377-1.7964631 2.0509392-1.837 3.415.0400691 1.3644586.7207712 2.6302608 1.837 3.416.4142136.3661648 1.0468352.3272135 1.413-.087.3661648-.4142136.3272135-1.0468352-.087-1.413-.743-.655-1.163-1.068-1.163-1.916s.42-1.26 1.188-1.941z"/><path id="Shape" d="m21.188 13.392c1.1074463-.7850421 1.7791659-2.0469258 1.812-3.404-.0355751-1.36130428-.7178736-2.62413212-1.837-3.4-.743-.661-1.163-1.074-1.163-1.921s.42-1.261 1.163-1.918c.2679492-.23686708.3891774-.59869049.3180191-.94917485s-.3238925-.63638275-.663-.75000001c-.3391076-.11361726-.7130699-.03769224-.9810191.19917486-1.1167825.78615708-1.7975542 2.05282961-1.837 3.418.0408505 1.36424944.7213766 2.62972416 1.837 3.416.763.675 1.163 1.067 1.163 1.905s-.395 1.238-1.163 1.93c-1.1158309.7856377-1.7964631 2.0509392-1.837 3.415.0400691 1.3644586.7207712 2.6302608 1.837 3.416.2679492.2368671.6419115.3127921.9810191.1991749.3391075-.1136173.5918417-.3995157.663-.75.0711583-.3504844-.0500699-.7123078-.3180191-.9491749-.743-.655-1.163-1.068-1.163-1.916s.42-1.26 1.188-1.941z"/><path id="Shape" d="m27.188 13.392c1.1074463-.7850421 1.7791659-2.0469258 1.812-3.404-.0355751-1.36130428-.7178736-2.62413212-1.837-3.4-.743-.661-1.163-1.074-1.163-1.921s.42-1.261 1.163-1.918c.2679492-.23686708.3891774-.59869049.3180191-.94917485s-.3238925-.63638275-.663-.75000001c-.3391076-.11361726-.7130699-.03769224-.9810191.19917486-1.1167825.78615708-1.7975542 2.05282961-1.837 3.418.0408505 1.36424944.7213766 2.62972416 1.837 3.416.763.675 1.163 1.067 1.163 1.905s-.395 1.238-1.163 1.93c-1.1158309.7856377-1.7964631 2.0509392-1.837 3.415.0400691 1.3644586.7207712 2.6302608 1.837 3.416.2679492.2368671.6419115.3127921.9810191.1991749.3391075-.1136173.5918417-.3995157.663-.75.0711583-.3504844-.0500699-.7123078-.3180191-.9491749-.743-.655-1.163-1.068-1.163-1.916s.42-1.26 1.188-1.941z"/></g></g></g></svg>