<svg id="Capa_1" enable-background="new 0 0 512 512" height="512" viewBox="0 0 512 512" width="512" xmlns="http://www.w3.org/2000/svg"><g><path d="m428.5 504.5h-30l-142.5-60-142.5 60h-30v-497h345z" fill="#ffd98c"/><path d="m368.5 37.5-112.5 233.5 112.5 233.5h30v-467z" fill="#a94c20"/><path d="m113.5 37.5h255v467h-255z" fill="#b76430"/><path d="m308.5 97.5-52.5 91 52.5 91h30v-182z" fill="#9b3310"/><path d="m173.5 97.5h135v182h-135z" fill="#a94c20"/><path d="m308.5 369.5-52.5 37.5 52.5 37.5h30v-75z" fill="#9b3310"/><path d="m173.5 369.5h135v75h-135z" fill="#a94c20"/><circle cx="256" cy="324.5" fill="#ffd98c" r="15"/><circle cx="256" cy="157.5" fill="#d49551" r="30"/><circle cx="256" cy="157.5" r="7.5"/><path d="m428.5 0h-345c-4.142 0-7.5 3.357-7.5 7.5v497c0 4.143 3.358 7.5 7.5 7.5h345c4.142 0 7.5-3.357 7.5-7.5v-497c0-4.143-3.358-7.5-7.5-7.5zm-7.5 497h-15v-459.5c0-4.143-3.358-7.5-7.5-7.5h-285c-4.142 0-7.5 3.357-7.5 7.5v272c0 4.143 3.358 7.5 7.5 7.5s7.5-3.357 7.5-7.5v-264.5h270v452h-270v-157.5c0-4.143-3.358-7.5-7.5-7.5s-7.5 3.357-7.5 7.5v157.5h-15v-482h330z"/><path d="m173.5 452h165c4.142 0 7.5-3.357 7.5-7.5v-75c0-4.143-3.358-7.5-7.5-7.5h-165c-4.142 0-7.5 3.357-7.5 7.5v75c0 4.143 3.358 7.5 7.5 7.5zm7.5-75h150v60h-150z"/><path d="m173.5 287h165c4.142 0 7.5-3.357 7.5-7.5v-182c0-4.143-3.358-7.5-7.5-7.5h-165c-4.142 0-7.5 3.357-7.5 7.5v182c0 4.143 3.358 7.5 7.5 7.5zm7.5-182h150v167h-150z"/><path d="m233.5 324.5c0 12.406 10.093 22.5 22.5 22.5s22.5-10.094 22.5-22.5-10.093-22.5-22.5-22.5-22.5 10.094-22.5 22.5zm30 0c0 4.136-3.364 7.5-7.5 7.5s-7.5-3.364-7.5-7.5 3.364-7.5 7.5-7.5 7.5 3.364 7.5 7.5z"/><path d="m256 120c-20.678 0-37.5 16.822-37.5 37.5s16.822 37.5 37.5 37.5 37.5-16.822 37.5-37.5-16.822-37.5-37.5-37.5zm0 60c-12.407 0-22.5-10.094-22.5-22.5s10.093-22.5 22.5-22.5 22.5 10.094 22.5 22.5-10.093 22.5-22.5 22.5z"/></g></svg>