<svg height="512" viewBox="0 0 512 512" width="512" xmlns="http://www.w3.org/2000/svg"><g id="FLAT"><path d="m24 288h464v200h-464z" fill="#d18d28"/><path d="m24 288h464v32h-464z" fill="#c38325"/><path d="m488 424c-46.4 0-46.4-16-92.8-16s-46.4 16-92.8 16-46.4-16-92.8-16-46.4 16-92.8 16-46.4-16-92.8-16v80h464z" fill="#92d1f7"/><path d="m360 412.38c8.16-2.32 17.81-4.12 32-4.35v79.97h-32z" fill="#5ebef7"/><path d="m488 424v64h-32v-67.52c8.12 2.05 17.93 3.52 32 3.52z" fill="#5ebef7"/><path d="m360 288-32-96h32l32 96z" fill="#422608"/><circle cx="352" cy="40" fill="#e82f3e" r="16"/><path d="m440 224a48 48 0 0 0 -48 48v16h32v-16a16 16 0 0 1 32 0v80h-66v32h66v104h32v-216a48 48 0 0 0 -48-48z" fill="#cbcbcb"/><path d="m390 368h66v16h-66z" fill="#b9b9b9"/><g fill="#5ebef7"><path d="m302.394 464a152.2 152.2 0 0 1 -23.63-1.661 8 8 0 1 1 2.472-15.808 136.471 136.471 0 0 0 21.158 1.469c21.86 0 32.513-3.674 43.794-7.563 1.078-.372 2.156-.744 3.244-1.112a8 8 0 1 1 5.136 15.152q-1.59.54-3.165 1.086c-12.029 4.148-24.468 8.437-49.009 8.437z"/><path d="m232.01 449.568a8.136 8.136 0 0 1 -1.247-.1 136.425 136.425 0 0 0 -21.169-1.468c-3.19 0-6.27.081-9.156.239a8 8 0 1 1 -.876-15.976c3.175-.175 6.55-.263 10.032-.263a152.193 152.193 0 0 1 23.643 1.663 8 8 0 0 1 -1.227 15.9z"/><path d="m116.8 464c-22.6 0-34.837-3.57-47.4-7.882a8 8 0 0 1 5.2-15.133c11.573 3.974 22.03 7.015 42.2 7.015 16.53 0 26.328-2.179 33.018-4.078a8 8 0 0 1 4.368 15.393c-11.42 3.24-22.951 4.685-37.386 4.685z"/></g><path d="m105.778 160-44.954-101.146a18.276 18.276 0 0 0 -16.701-10.854 18.276 18.276 0 0 0 -16.7 25.7l52.577 118.3h312v-16a16 16 0 0 0 -16-16z" fill="#683b0d"/><path d="m80 288 32-96h-32l-32 96z" fill="#422608"/><rect fill="#007af6" height="32" rx="16" width="264" x="120" y="128"/><rect fill="#007af6" height="80" rx="16" transform="matrix(.909 -.416 .416 .909 -35.086 50.647)" width="32" x="82.665" y="65.828"/><path d="m264 240h-96v-112a8 8 0 0 1 8-8h80a8 8 0 0 1 8 8z" fill="#e2e2e2"/><path d="m168 176h96v32h-96z" fill="#92d1f7"/><path d="m312 100-34-52h68z" fill="#02a437"/><path d="m346 48-34 52-3-4.59 31-47.41z" fill="#029532"/><path d="m320 109.3v-21.3h-16v21.3a25.878 25.878 0 0 0 -8 18.7h32a25.878 25.878 0 0 0 -8-18.7z" fill="#cbcbcb"/><path d="m322 128h-26a25.874 25.874 0 0 1 8-18.7v-21.3h10v21.3a25.812 25.812 0 0 1 8 18.7z" fill="#e2e2e2"/><path d="m322 128h-26a25.874 25.874 0 0 1 8-18.7v-21.3h10v21.3a25.812 25.812 0 0 1 8 18.7z" fill="#e2e2e2"/><path d="m296 272v16h32v-16a16 16 0 0 1 16-16 16 16 0 0 1 16 16v216h32v-216a48 48 0 0 0 -48-48 48 48 0 0 0 -48 48z" fill="#e2e2e2"/><path d="m488 424c-14.07 0-23.88-1.47-32-3.52v23.72c-4.172-1.139-7.947-2.44-11.8-3.767a157.811 157.811 0 0 0 -18.488-5.483 8 8 0 0 0 -3.434 15.627 142.774 142.774 0 0 1 16.706 4.982 166.16 166.16 0 0 0 17.016 5.16v27.281h32z" fill="#5ebef7"/><path d="m392 408.03v79.97h-32v-75.62c8.16-2.32 17.81-4.12 32-4.35z" fill="#5ebef7"/></g></svg>