<svg id="Capa_1" enable-background="new 0 0 512 512" height="512" viewBox="0 0 512 512" width="512" xmlns="http://www.w3.org/2000/svg"><g><g><path d="m383.546 384.265h-255.092l-7.74 47.549h270.572z" fill="#d8694b"/></g><path d="m128.454 384.265-7.74 47.549h54.085l7.74-47.549z" fill="#c5573a"/><path d="m419.097 384.265h-38.641l10.773 65.782c4.085 24.553 40.051 22.401 41.179-2.464l2.826-63.318z" fill="#df7f66"/><path d="m76.765 384.265 2.826 63.318c1.128 24.865 37.094 27.017 41.179 2.464l10.773-65.782h-38.64z" fill="#e59380"/><path d="m102.943 447.584-2.826-63.318h-7.213-16.139l2.826 63.318c.829 18.264 20.444 24.255 32.424 16.428-5.038-3.228-8.723-8.739-9.072-16.428z" fill="#df7f66"/><path d="m419.097 384.265h-38.641l10.773 65.782c4.085 24.553 40.051 22.401 41.179-2.464l2.826-63.318z" fill="#df7f66"/><path d="m419.097 384.265h-38.641l10.773 65.782c4.085 24.553 40.051 22.401 41.179-2.464l2.826-63.318z" fill="#e59380"/><path d="m414.58 450.047-10.773-65.782h-23.351l10.773 65.782c2.822 16.96 20.851 21.172 32.106 13.964-4.329-2.829-7.67-7.446-8.755-13.964z" fill="#df7f66"/><g><path d="m75.212 199.957 6.255 46.483c-.001.001-.002.002-.002.002 2.931-2.273 6.595-3.643 10.571-3.643h327.929c3.976 0 7.639 1.371 10.572 3.644 0 0-.002-.002-.004-.003l6.255-46.483c.577-4-.48-7.844.88-11.503v-108.248c0-19.658-15.936-35.594-35.594-35.594h-301.837c-19.658 0-35.594 15.936-35.594 35.594v91.694c6.569 7.758 9.028 17.366 10.569 28.057z" fill="#935cb5"/></g><g><path d="m128.267 199.957c-.578-4.009-1.285-7.866-2.289-11.53-5.802-21.166-8.28-43.105-8.28-65.051v-43.17c0-19.657 15.934-35.593 35.591-35.594h-53.053c-19.658 0-35.594 15.936-35.594 35.594v91.694c6.57 7.758 9.028 17.366 10.569 28.056l6.255 46.483c-.001.001-.002.002-.002.002 2.931-2.273 6.595-3.643 10.571-3.643h41.997z" fill="#834aa3"/></g><path d="m79.856 253.948c0-5.557-.429-10.512 3.671-13.689l-6.255-43.392c-3.956-27.444-27.473-47.814-55.201-47.814-12.713 0-22.798 10.713-22.031 23.403l10.603 175.282c1.276 21.1 18.76 37.558 39.899 37.558h29.313v-62.026-69.322z" fill="#c2a1d5"/><path d="m50.347 347.737-10.603-175.282c-.419-6.928 2.401-13.262 7.112-17.59-7.499-3.726-15.925-5.814-24.785-5.814-12.714 0-22.798 10.713-22.031 23.403l10.603 175.282c1.276 21.1 18.76 37.558 39.899 37.558h29.313v-1.377c-16.216-4.357-28.449-18.664-29.508-36.18z" fill="#b48aca"/><g><path d="m432.144 253.948c0-5.557.429-10.512-3.671-13.689l6.255-43.392c3.956-27.444 27.473-47.814 55.201-47.814 12.713 0 22.798 10.713 22.031 23.403l-10.603 175.282c-1.276 21.1-18.76 37.558-39.899 37.558h-29.313v-62.026-69.322z" fill="#c2a1d5"/></g><path d="m471.292 323.27v-69.322c0-2.382.079-4.653-.154-6.72-1.455-12.921-.775-25.994 1.08-38.864l1.657-11.497c2.712-18.814 14.619-34.301 30.772-42.183-3.896-3.493-9.044-5.631-14.719-5.631-27.728 0-51.244 20.37-55.201 47.814l-6.255 43.392c4.1 3.177 3.671 8.132 3.671 13.689v69.322 62.025h29.313c3.39 0 6.684-.428 9.834-1.226v-60.799z" fill="#b48aca"/><path d="m328.66 100.737h-155.01c-11.32 0-20.582 9.262-20.582 20.582v94.716c0 11.32 9.262 20.582 20.582 20.582h155.01c11.32 0 20.582-9.262 20.582-20.582v-94.716c0-11.32-9.262-20.582-20.582-20.582z" fill="#c2a1d5"/><path d="m199.943 216.036v-94.717c0-11.32 9.262-20.582 20.582-20.582h-46.874c-11.32 0-20.582 9.262-20.582 20.582v94.717c0 11.32 9.262 20.582 20.582 20.582h46.874c-11.32-.001-20.582-9.263-20.582-20.582z" fill="#b48aca"/><path d="m76.765 318.585h358.47v66.711h-358.47z" fill="#935cb5"/><path d="m76.765 318.585h54.779v66.711h-54.779z" fill="#834aa3"/><path d="m417.904 236.617h-323.808c-9.532 0-17.331 7.799-17.331 17.331v69.322h358.47v-69.322c0-9.532-7.799-17.331-17.331-17.331z" fill="#a374c0"/><path d="m148.875 236.617h-54.779c-9.532 0-17.331 7.799-17.331 17.331v69.322h54.779v-69.322c0-9.532 7.799-17.331 17.331-17.331z" fill="#935cb5"/></g></svg>