<svg id="Layer_1" enable-background="new 0 0 512 512" height="512" viewBox="0 0 512 512" width="512" xmlns="http://www.w3.org/2000/svg"><g><g><path clip-rule="evenodd" d="m255.985 4h-177.198-40.474c-21.084 0-38.313 17.206-38.313 38.26v86.553l90.351 149.601c129.248-83.17 224.155-47.33 331.268 0l90.381-174.972v-61.182c0-21.054-17.258-38.26-38.313-38.26h-40.474z" fill="#b1d7fe" fill-rule="evenodd"/></g><g><path clip-rule="evenodd" d="m357.463 72.793c0-16.506-13.375-29.862-29.903-29.862s-29.903 13.356-29.903 29.862c0 16.476 13.375 29.862 29.903 29.862s29.903-13.386 29.903-29.862z" fill="#ffdb4e" fill-rule="evenodd"/></g><g><path clip-rule="evenodd" d="m512 42.26c0 21.055-17.258 38.26-38.313 38.26h-39.014c-7.154 0-13.053 5.862-13.053 13.035v138.373 52.9 20.268c0 7.174 5.899 13.035 13.053 13.035h39.014c21.055 0 38.313-17.235 38.313-38.26z" fill="#808b95" fill-rule="evenodd"/></g><g><path clip-rule="evenodd" d="m305.6 188.682-62.784-95.301c-16.645-25.254-44.562-25.254-61.178 0l-91.287 138.548-36.056 52.9h314.644z" fill="#ccf49f" fill-rule="evenodd"/></g><g><path clip-rule="evenodd" d="m375.363 161.708c-14.105-21.463-37.875-21.463-52.009 0l-17.754 26.974 13.579 64.623 49.76 31.524h52.681v-52.9z" fill="#ccf49f" fill-rule="evenodd"/></g><g><path clip-rule="evenodd" d="m512 279.872v-237.612c0 21.055-17.258 38.26-38.313 38.26h-.701v131.987 67.364c0 21.026-17.229 38.26-38.313 38.26h39.014c21.055.001 38.313-17.234 38.313-38.259z" fill="#566b74" fill-rule="evenodd"/></g><g><path clip-rule="evenodd" d="m77.298 80.521h-38.985c-21.084 0-38.313-17.206-38.313-38.261v237.611c0 21.026 17.258 38.26 38.313 38.26h38.985c7.184 0 13.053-5.862 13.053-13.035v-20.268-52.9-138.372c0-7.174-5.869-13.035-13.053-13.035z" fill="#808b95" fill-rule="evenodd"/></g><g><path clip-rule="evenodd" d="m305.6 188.682-62.784-95.301c-10.513-15.952-25.552-21.813-39.394-17.614 25.99 39.981 42.343 93.61 43.628 152.838.058 2.479.088 4.958.088 7.465 0 16.71-1.226 33.04-3.504 48.759h125.306z" fill="#b3e59f" fill-rule="evenodd"/></g><g><path clip-rule="evenodd" d="m421.62 231.929-46.256-70.222c-6.921-10.527-16.149-15.893-25.435-16.097 18.28 32.661 30.604 72.817 34.575 116.852.642 7.349 1.08 14.814 1.256 22.367h35.86v-6.416z" fill="#b3e59f" fill-rule="evenodd"/></g><g><path clip-rule="evenodd" d="m90.351 93.556c0-7.174-5.87-13.035-13.053-13.035h-38.985c7.155 0 13.053 5.862 13.053 13.035v120.293 18.08 52.9 20.268c0 7.174-5.899 13.035-13.053 13.035h38.985c7.184 0 13.053-5.862 13.053-13.035v-20.268-6.416-46.484z" fill="#566b74" fill-rule="evenodd"/></g><g><path clip-rule="evenodd" d="m357.463 72.793c0-16.506-13.375-29.862-29.903-29.862-3.154 0-6.22.496-9.082 1.4 11.097 4.345 18.952 15.164 18.952 27.791 0 13.327-8.761 24.613-20.821 28.462 3.387 1.341 7.096 2.071 10.951 2.071 16.528 0 29.903-13.386 29.903-29.862z" fill="#ffaf5d" fill-rule="evenodd"/></g><g><path clip-rule="evenodd" d="m433.213 4h-176.322c16.908 14.814 31.1 37.794 40.883 66.023 1.11-12.102 9.461-22.134 20.704-25.692 2.862-.904 5.928-1.4 9.082-1.4 16.528 0 29.903 13.356 29.903 29.862 0 16.476-13.375 29.862-29.903 29.862-3.855 0-7.563-.729-10.951-2.071-4.964-1.954-9.286-5.191-12.528-9.303 5.344 21.551 8.323 45.376 8.323 70.426 0 5.862-.175 11.665-.496 17.381l11.447-17.381c7.213-10.936 16.908-16.301 26.574-16.097 9.286.204 18.514 5.57 25.435 16.097l46.256 70.222v-138.373c0-7.174 5.899-13.035 13.053-13.035h38.313.701c21.055 0 38.313-17.206 38.313-38.26 0-21.055-17.258-38.261-38.313-38.261z" fill="#8bc6f8" fill-rule="evenodd"/></g><g fill="#566b74"><path d="m187.565 408.627h-38.722c-4.268 0-7.726 3.457-7.726 7.722s3.459 7.722 7.726 7.722h38.722c9.139 0 16.574-7.428 16.574-16.558v-60.861c0-9.13-7.436-16.558-16.574-16.558h-38.722c-4.268 0-7.726 3.457-7.726 7.722s3.459 7.722 7.726 7.722h38.722c.576 0 1.122.541 1.122 1.114v22.723h-39.844c-4.268 0-7.726 3.457-7.726 7.722s3.459 7.722 7.726 7.722h39.844v22.694c0 .573-.545 1.114-1.122 1.114z"/><path d="m241.063 345.539h38.692c4.268 0 7.726-3.457 7.726-7.722s-3.459-7.722-7.726-7.722h-38.692c-9.139 0-16.574 7.428-16.574 16.558v60.861c0 9.13 7.436 16.558 16.574 16.558h29.873c9.123 0 16.545-7.428 16.545-16.558v-21.609c0-9.114-7.423-16.529-16.545-16.529h-30.995v-22.723c.001-.594.525-1.114 1.122-1.114zm29.874 39.281c.582 0 1.093.507 1.093 1.085v21.609c0 .583-.521 1.114-1.093 1.114h-29.873c-.598 0-1.122-.52-1.122-1.114v-22.694z"/><path d="m354.28 424.071c9.139 0 16.574-7.428 16.574-16.558v-60.861c0-9.13-7.436-16.558-16.574-16.558h-29.874c-9.123 0-16.545 7.428-16.545 16.558v60.861c0 9.13 7.423 16.558 16.545 16.558zm-30.967-16.558v-60.861c0-.583.521-1.114 1.093-1.114h29.874c.598 0 1.122.521 1.122 1.114v60.861c0 .593-.524 1.114-1.122 1.114h-29.874c-.572 0-1.093-.531-1.093-1.114z"/><path d="m393.934 393.442c-3.926-1.675-8.464.147-10.14 4.069s.147 8.459 4.071 10.134c14.835 6.332 23.692 13.696 23.692 19.698 0 11.901-36.378 32.301-114.463 38.289-4.255.326-7.439 4.038-7.112 8.29.311 4.052 3.696 7.132 7.695 7.132.198 0 .398-.008.6-.023 34.914-2.678 66.573-8.783 89.144-17.192 26.269-9.786 39.589-22.065 39.589-36.496 0-13.127-11.129-24.533-33.076-33.901z"/><path d="m262.44 479.144c2.199-3.336 1.403-7.959-1.77-10.378l-33.29-25.371c-3.394-2.587-8.242-1.932-10.829 1.458-2.588 3.392-1.935 8.237 1.459 10.823l14.453 11.015c-33.942-1.435-65.2-5.971-89.766-13.127-31.188-9.085-42.255-19.803-42.255-26.221 0-6.012 8.855-13.375 23.688-19.696 3.926-1.673 5.751-6.209 4.077-10.132-1.674-3.922-6.212-5.747-10.138-4.075-21.951 9.354-33.08 20.76-33.08 33.903 0 16.681 18.46 30.876 53.383 41.049 26.169 7.623 59.409 12.399 95.309 13.801l-15.672 11.944c-3.393 2.586-4.046 7.432-1.459 10.823 1.52 1.993 3.822 3.04 6.15 3.04 1.633 0 3.28-.516 4.679-1.582l33.29-25.371c.693-.527 1.294-1.177 1.771-1.903z"/><path d="m392.741 330.241.029-.029c3.017-3.015 3.002-7.891-.015-10.906s-7.923-3-10.942.015c-3.017 3.015-3.017 7.905 0 10.921 1.509 1.508 3.487 2.262 5.464 2.262 1.978-.001 3.955-.755 5.464-2.263z"/></g></g></svg>