<svg height="512pt" viewBox="0 0 512.0027 512" width="512pt" xmlns="http://www.w3.org/2000/svg"><path d="m512.003906 332.722656h-224v-211.890625l112-120.832031 112 120.832031zm0 0" fill="#f8e868"/><path d="m288.003906 120.832031h224l-112-120.832031zm0 0" fill="#e0c938"/><path d="m480.003906 332.722656h32v179.277344h-32zm0 0" fill="#99814f"/><path d="m288.003906 332.722656h32v179.277344h-32zm0 0" fill="#99814f"/><path d="m64.003906 300.128906h32v211.871094h-32zm0 0" fill="#d4b981"/><path d="m368.003906 218.625h32v114.097656h-32zm0 0" fill="#ff7043"/><path d="m432.003906 218.625h32v114.097656h-32zm0 0" fill="#ff7043"/><path d="m256.003906 332.800781h-32v-81.597656c-.222656-26.75 21.253906-48.625 48-48.898437h240v32.59375h-240c-8.921875.085937-16.082031 7.382812-16 16.304687zm0 0" fill="#ff8a65"/><path d="m80.003906 316.417969c-44.570312-.464844-80.355468-36.917969-79.99999975-81.488281v-130.382813c-.36718725-44.578125 35.42187475-81.039063 79.99999975-81.503906 44.574219.464843 80.363282 36.925781 80 81.503906v130.382813c.355469 44.570312-35.429687 81.023437-80 81.488281zm0 0" fill="#aed581"/><path d="m70.625 512h-54.621094c-8.921875-.085938-16.082031-7.382812-15.99999975-16.300781-.08203125-8.917969 7.08203175-16.210938 15.99999975-16.289063h41.375l160-162.992187h294.625v32.589843h-281.378906zm0 0" fill="#ff8a65"/><path d="m80.003906 283.824219c-44.570312-.464844-80.355468-36.914063-79.99999975-81.488281v32.59375c-.35546825 44.570312 35.42968775 81.023437 79.99999975 81.488281 44.570313-.464844 80.355469-36.917969 80-81.488281v-32.59375c.355469 44.574218-35.429687 81.023437-80 81.488281zm0 0" fill="#7cb342"/></svg>