<svg height="512" viewBox="0 0 128 128" width="512" xmlns="http://www.w3.org/2000/svg"><g id="Layer_3" data-name="Layer 3"><path d="m128.01 48.45a34.843 34.843 0 0 1 -7.02 20.95 31.209 31.209 0 0 0 -6.31 18.88v16.35a19.85 19.85 0 0 1 -2.31 9.29 19.856 19.856 0 0 1 -37.41-9.29v-92.99a8.146 8.146 0 0 1 16.17-1.39.611.611 0 0 1 .12-.05 5.83 5.83 0 0 1 2.43-.53 5.927 5.927 0 0 1 5.79 4.65c.05-.02.09-.04.14-.06a5.967 5.967 0 0 1 4.85-.01 6.028 6.028 0 0 1 2.88 2.76 4.541 4.541 0 0 1 .62-.32 5.842 5.842 0 0 1 2.44-.53 5.777 5.777 0 0 1 2.42.52 5.933 5.933 0 0 1 3.17 3.42c.11-.06.22-.11.33-.16a5.835 5.835 0 0 1 2.44-.52 5.932 5.932 0 0 1 5.92 5.92v4.98l2.38 10.06a35.162 35.162 0 0 1 .95 8.07z" fill="#ffecb3"/><g fill="#ffe082"><path d="m127.06 40.38-2.38-10.06v-4.98a5.932 5.932 0 0 0 -5.92-5.92 5.865 5.865 0 0 0 -2.2.425 5.932 5.932 0 0 1 3.733 5.5v4.98l2.38 10.06a34.765 34.765 0 0 1 -6.073 29.015 31.209 31.209 0 0 0 -6.31 18.88v16.35a19.85 19.85 0 0 1 -2.31 9.29 19.822 19.822 0 0 1 -15.339 10.448 19.985 19.985 0 0 0 2.175.132 19.882 19.882 0 0 0 19.86-19.87v-16.35a31.209 31.209 0 0 1 6.31-18.88 34.765 34.765 0 0 0 6.07-29.02z"/><path d="m127.06 40.38-2.38-10.06v-4.98a5.932 5.932 0 0 0 -5.92-5.92 5.865 5.865 0 0 0 -2.2.425 5.932 5.932 0 0 1 3.733 5.5v4.98l2.38 10.06a34.765 34.765 0 0 1 -6.073 29.015 31.209 31.209 0 0 0 -6.31 18.88v16.35a19.85 19.85 0 0 1 -2.31 9.29 19.822 19.822 0 0 1 -15.339 10.448 19.985 19.985 0 0 0 2.175.132 19.882 19.882 0 0 0 19.86-19.87v-16.35a31.209 31.209 0 0 1 6.31-18.88 34.765 34.765 0 0 0 6.07-29.02z"/><path d="m119.96 41.5a1.75 1.75 0 0 1 -3.5 0 7.281 7.281 0 0 0 -6.07-7.19l-25.73-4.36a1.749 1.749 0 1 1 .58-3.45l2.51.42v-21.96a8.148 8.148 0 0 1 3.38 5.29.611.611 0 0 1 .12-.05v17.11c0 .07-.02.14-.02.2l4.88.83v-18.15a5.981 5.981 0 0 1 3.36 4.13c.05-.02.09-.04.14-.06v14.67l4.85.83v-15.51a6.028 6.028 0 0 1 2.88 2.76 4.541 4.541 0 0 1 .62-.32v13.66l3.01.51a10.271 10.271 0 0 1 1.85.49v-14.67a5.933 5.933 0 0 1 3.17 3.42c.11-.06.22-.11.33-.16v13.48a10.783 10.783 0 0 1 3.64 8.08z"/></g><path d="m86.909 36.245a37.621 37.621 0 0 0 -10.7 1.492 1.749 1.749 0 0 0 -1.253 1.678v24.66a1.749 1.749 0 0 0 1.253 1.678 37.621 37.621 0 0 0 10.7 1.492c13.929 0 24.84-6.809 24.84-15.5s-10.911-15.5-24.84-15.5z" fill="#4db6ac"/><path d="m86.909 36.245c-.732 0-1.452.035-2.171.073 12.735.746 22.385 7.253 22.385 15.427s-9.65 14.68-22.385 15.427c.719.038 1.438.073 2.17.073 13.929 0 24.84-6.809 24.84-15.5s-10.91-15.5-24.839-15.5z" fill="#26a69a"/><path d="m118.915 70.732a1.759 1.759 0 0 0 -1.548-.856c-11.367.274-20.267 6.103-20.267 13.269 0 6.11 6.245 11.262 15.54 12.816a1.707 1.707 0 0 0 .289.024 1.749 1.749 0 0 0 1.75-1.75v-5.96a31.507 31.507 0 0 1 4.245-15.775 1.752 1.752 0 0 0 -.009-1.768z" fill="#ef5350"/><path d="m117.367 69.876c-.387.009-.764.041-1.145.063-.6.825-1.17 1.683-1.688 2.571a31.541 31.541 0 0 0 -4.24 15.77v7.186c.76.188 1.536.36 2.345.495a1.707 1.707 0 0 0 .289.024 1.749 1.749 0 0 0 1.75-1.75v-5.96a31.507 31.507 0 0 1 4.246-15.775 1.749 1.749 0 0 0 -1.557-2.626z" fill="#e53935"/><path d="m112.138 111.933c-3.685-4.149-10.742-6.728-18.419-6.728-6.618 0-12.706 1.855-16.7 5.09a1.752 1.752 0 0 0 -.512 2.039 19.86 19.86 0 0 0 35.871 1.577 1.751 1.751 0 0 0 -.24-1.978z" fill="#ba68c8"/><path d="m112.138 111.933a15.1 15.1 0 0 0 -2.51-2.229 19.825 19.825 0 0 1 -16.965 14.662l.18.02q.353.036.709.062c.42.027.842.047 1.268.047a19.857 19.857 0 0 0 16.813-9.293q.392-.626.737-1.282l.013-.027a1.749 1.749 0 0 0 -.245-1.96z" fill="#ab47bc"/><path d="m-.01 48.45a34.843 34.843 0 0 0 7.02 20.95 31.687 31.687 0 0 1 2.07 3.11 31.541 31.541 0 0 1 4.24 15.77v16.35a19.85 19.85 0 0 0 2.31 9.29 19.853 19.853 0 0 0 35.86-1.59 19.615 19.615 0 0 0 1.55-7.7v-92.99a8.146 8.146 0 0 0 -16.17-1.39.611.611 0 0 0 -.12-.05 5.83 5.83 0 0 0 -2.43-.53 5.927 5.927 0 0 0 -5.79 4.65c-.05-.02-.09-.04-.14-.06a5.967 5.967 0 0 0 -4.85-.01 6.028 6.028 0 0 0 -2.88 2.76 4.541 4.541 0 0 0 -.62-.32 5.842 5.842 0 0 0 -2.44-.53 5.777 5.777 0 0 0 -2.42.52 5.933 5.933 0 0 0 -3.17 3.42c-.11-.06-.22-.11-.33-.16a5.835 5.835 0 0 0 -2.44-.52 5.932 5.932 0 0 0 -5.92 5.92v4.98l-2.38 10.06a35.162 35.162 0 0 0 -.95 8.07z" fill="#ffecb3"/><path d="m.94 40.38 2.38-10.06v-4.98a5.932 5.932 0 0 1 5.92-5.92 5.865 5.865 0 0 1 2.2.425 5.932 5.932 0 0 0 -3.733 5.5v4.98l-2.382 10.055a34.765 34.765 0 0 0 6.075 29.02 31.687 31.687 0 0 1 2.07 3.11 31.541 31.541 0 0 1 4.24 15.77v16.35a19.85 19.85 0 0 0 2.31 9.29 19.822 19.822 0 0 0 15.339 10.448 19.985 19.985 0 0 1 -2.175.132 19.882 19.882 0 0 1 -19.86-19.87v-16.35a31.541 31.541 0 0 0 -4.244-15.77 31.687 31.687 0 0 0 -2.07-3.11 34.765 34.765 0 0 1 -6.07-29.02z" fill="#ffe082"/><path d="m.94 40.38 2.38-10.06v-4.98a5.932 5.932 0 0 1 5.92-5.92 5.865 5.865 0 0 1 2.2.425 5.932 5.932 0 0 0 -3.733 5.5v4.98l-2.382 10.055a34.765 34.765 0 0 0 6.075 29.02 31.687 31.687 0 0 1 2.07 3.11 31.541 31.541 0 0 1 4.24 15.77v16.35a19.85 19.85 0 0 0 2.31 9.29 19.822 19.822 0 0 0 15.339 10.448 19.985 19.985 0 0 1 -2.175.132 19.882 19.882 0 0 1 -19.86-19.87v-16.35a31.541 31.541 0 0 0 -4.244-15.77 31.687 31.687 0 0 0 -2.07-3.11 34.765 34.765 0 0 1 -6.07-29.02z" fill="#ffe082"/><path d="m8.04 41.5a1.75 1.75 0 0 0 3.5 0 7.281 7.281 0 0 1 6.07-7.19l25.73-4.36a1.749 1.749 0 1 0 -.58-3.45l-2.51.42v-21.96a8.148 8.148 0 0 0 -3.38 5.29.611.611 0 0 0 -.12-.05v17.11c0 .07.02.14.02.2l-4.88.83v-18.15a5.981 5.981 0 0 0 -3.36 4.13c-.05-.02-.09-.04-.14-.06v14.67l-4.85.83v-15.51a6.028 6.028 0 0 0 -2.88 2.76 4.541 4.541 0 0 0 -.62-.32v13.66l-3.01.51a10.271 10.271 0 0 0 -1.85.49v-14.67a5.933 5.933 0 0 0 -3.17 3.42c-.11-.06-.22-.11-.33-.16v13.48a10.783 10.783 0 0 0 -3.64 8.08z" fill="#ffe082"/><path d="m41.091 36.245a37.621 37.621 0 0 1 10.7 1.492 1.749 1.749 0 0 1 1.253 1.678v24.66a1.749 1.749 0 0 1 -1.253 1.678 37.621 37.621 0 0 1 -10.7 1.492c-13.929 0-24.84-6.809-24.84-15.5s10.911-15.5 24.84-15.5z" fill="#4db6ac"/><path d="m41.091 36.245c.732 0 1.452.035 2.171.073-12.735.746-22.385 7.253-22.385 15.427s9.65 14.68 22.385 15.427c-.719.038-1.438.073-2.17.073-13.929 0-24.84-6.809-24.84-15.5s10.91-15.5 24.839-15.5z" fill="#26a69a"/><path d="m9.085 70.732a1.759 1.759 0 0 1 1.548-.856c11.367.274 20.267 6.103 20.267 13.269 0 6.11-6.245 11.262-15.54 12.816a1.707 1.707 0 0 1 -.289.024 1.749 1.749 0 0 1 -1.75-1.75v-5.96a31.507 31.507 0 0 0 -4.245-15.775 1.752 1.752 0 0 1 .009-1.768z" fill="#ef5350"/><path d="m10.633 69.876c.387.009.764.041 1.145.063.6.825 1.17 1.683 1.688 2.571a31.541 31.541 0 0 1 4.24 15.77v7.186c-.76.188-1.536.36-2.345.495a1.707 1.707 0 0 1 -.289.024 1.749 1.749 0 0 1 -1.75-1.75v-5.96a31.507 31.507 0 0 0 -4.246-15.775 1.749 1.749 0 0 1 1.557-2.626z" fill="#e53935"/><path d="m15.862 111.933c3.685-4.149 10.742-6.728 18.419-6.728 6.618 0 12.706 1.855 16.7 5.09a1.752 1.752 0 0 1 .512 2.039 19.86 19.86 0 0 1 -35.871 1.577 1.751 1.751 0 0 1 .24-1.978z" fill="#ba68c8"/><path d="m15.862 111.933a15.1 15.1 0 0 1 2.51-2.229 19.825 19.825 0 0 0 16.965 14.662l-.18.02q-.353.036-.709.062c-.42.027-.842.047-1.268.047a19.857 19.857 0 0 1 -16.813-9.295q-.392-.626-.737-1.282l-.013-.027a1.749 1.749 0 0 1 .245-1.958z" fill="#ab47bc"/><path d="m124.667 30.321v-4.976a5.921 5.921 0 0 0 -8.688-5.243 5.933 5.933 0 0 0 -8.651-3.1 5.929 5.929 0 0 0 -7.869-2.685 5.931 5.931 0 0 0 -8.34-4.07 8.146 8.146 0 0 0 -16.171 1.394v63.1a1.75 1.75 0 0 0 3.5 0v-8.415a38.545 38.545 0 0 0 8.45.919c13.929 0 24.84-6.809 24.84-15.5s-10.911-15.5-24.84-15.5a38.545 38.545 0 0 0 -8.45.919v-25.519a4.645 4.645 0 0 1 9.29 0v3.927.029 11.323l-2.5-.425a1.75 1.75 0 1 0 -.586 3.451l25.729 4.362a7.269 7.269 0 0 1 6.069 7.185 1.75 1.75 0 0 0 3.5 0 10.752 10.752 0 0 0 -3.64-8.079c0-.03.009-.057.009-.087v-7.938c0-.017 0-.032 0-.049a2.425 2.425 0 1 1 4.85 0v5.181a1.751 1.751 0 0 0 .047.4l2.431 10.26a31.307 31.307 0 0 1 -5.466 26.1c-.631.839-1.221 1.728-1.785 2.637-10.9.572-19.307 6.256-19.307 13.216 0 5.783 5.6 10.7 14.08 12.531v8.959a16.378 16.378 0 0 1 -.964 5.515c-3.94-3.089-9.991-4.944-16.5-4.944a28.671 28.671 0 0 0 -14.681 3.7 16.344 16.344 0 0 1 -.579-4.268v-13.131a1.75 1.75 0 0 0 -3.5 0v13.135a19.857 19.857 0 0 0 37.418 9.277v-.007a19.83 19.83 0 0 0 2.3-9.271v-16.359q0-1.036.068-2.068a31.529 31.529 0 0 1 4.181-13.707 32.368 32.368 0 0 1 2.063-3.1 34.8 34.8 0 0 0 6.075-29.015zm-37.767 9.424c11.567 0 21.34 5.5 21.34 12s-9.772 12-21.34 12a34.76 34.76 0 0 1 -8.45-1v-21.995a34.76 34.76 0 0 1 8.45-1.005zm15.13-22.51a2.432 2.432 0 0 1 2.43 2.43v2.376.039 7.678l-4.859-.824v-9.234c0-.013 0-.026 0-.039a2.432 2.432 0 0 1 2.426-2.426zm-10.796 10.076v-11.677c0-.01 0-.019 0-.029a2.43 2.43 0 0 1 4.86 0v4.025.039 8.672l-4.88-.827a1.722 1.722 0 0 0 .02-.203zm19.726 3.551-3.007-.51v-8.238c0-.013 0-.026 0-.039a2.43 2.43 0 0 1 4.86 0v3.225.049 6a10.914 10.914 0 0 0 -1.853-.488zm-10.373 52.283c0-4.586 5.967-8.557 13.814-9.544a35.687 35.687 0 0 0 -3.124 12.049c-.177 2.137-.111 4.294-.111 6.436-6.238-1.556-10.579-5.141-10.579-8.941zm-5.779 37.855a16.5 16.5 0 0 1 -14.5-8.781c3.357-2.213 8.247-3.509 13.4-3.509 6.014 0 11.694 1.806 14.922 4.676-.017.027-.037.052-.054.079-.269.421-.561.825-.867 1.218q-.128.165-.26.326c-.339.413-.69.815-1.068 1.193a16.262 16.262 0 0 1 -11.573 4.798z"/><path d="m76.7 85.992a1.75 1.75 0 0 0 1.75-1.75v-2.242a1.75 1.75 0 0 0 -3.5 0v2.242a1.75 1.75 0 0 0 1.75 1.75z"/><path d="m44.889 3.5a8.161 8.161 0 0 0 -8.03 6.747 5.929 5.929 0 0 0 -8.34 4.069 5.93 5.93 0 0 0 -7.87 2.685 5.932 5.932 0 0 0 -8.649 3.099 5.92 5.92 0 0 0 -8.689 5.242v4.977l-2.385 10.063a35.02 35.02 0 0 0 .1 16.483 1.75 1.75 0 0 0 3.4-.848 31.5 31.5 0 0 1 -.092-14.829l2.43-10.26a1.751 1.751 0 0 0 .047-.4v-5.183a2.425 2.425 0 1 1 4.851 0v.039 7.948c0 .03.007.058.009.088a10.752 10.752 0 0 0 -3.638 8.08 1.75 1.75 0 0 0 3.5 0 7.268 7.268 0 0 1 6.067-7.187l25.73-4.362a1.75 1.75 0 1 0 -.586-3.451l-2.5.425v-11.325c0-.01 0-.019 0-.029v-3.926a4.645 4.645 0 0 1 9.29 0v25.52a38.545 38.545 0 0 0 -8.45-.919c-13.929 0-24.84 6.809-24.84 15.5s10.911 15.5 24.84 15.5a38.545 38.545 0 0 0 8.45-.919v38.309a16.333 16.333 0 0 1 -.579 4.268 28.679 28.679 0 0 0 -14.681-3.7c-6.5 0-12.556 1.856-16.5 4.945a16.374 16.374 0 0 1 -.964-5.515v-8.958c8.481-1.829 14.08-6.748 14.08-12.531 0-6.96-8.408-12.644-19.306-13.216-.562-.905-1.152-1.794-1.786-2.636a31.641 31.641 0 0 1 -2.622-4.115 1.75 1.75 0 1 0 -3.088 1.646 35.092 35.092 0 0 0 2.912 4.576 32.183 32.183 0 0 1 2.064 3.1 31.508 31.508 0 0 1 4.244 15.773v16.359a19.877 19.877 0 0 0 24.26 19.371c.6-.135 1.179-.305 1.756-.493a19.783 19.783 0 0 0 12.158-11.179v-.005a19.719 19.719 0 0 0 1.546-7.694v-92.987a8.15 8.15 0 0 0 -8.139-8.145zm-18.94 13.735a2.432 2.432 0 0 1 2.43 2.43v.039 9.23l-4.859.824v-7.678c0-.017 0-.032 0-.049v-2.366a2.433 2.433 0 0 1 2.429-2.43zm-8.933 13.626a10.915 10.915 0 0 0 -1.853.486v-6c0-.013 0-.026 0-.039v-3.233a2.43 2.43 0 0 1 4.859 0v.049 8.228zm14.867-2.521v-8.671c0-.013 0-.026 0-.039v-4.025a2.43 2.43 0 1 1 4.86 0v.029 11.677a1.722 1.722 0 0 0 .02.2zm9.2 35.4c-11.567 0-21.34-5.5-21.34-12s9.772-12 21.34-12a34.76 34.76 0 0 1 8.45 1v22a34.76 34.76 0 0 1 -8.454 1.005zm-13.69 19.4c0 3.8-4.341 7.386-10.58 8.941 0-2.086.066-4.188-.1-6.269a35.711 35.711 0 0 0 -3.138-12.212c7.847.988 13.814 4.959 13.814 9.545zm-5.793 33.06a16.38 16.38 0 0 1 -2.248-2.817c3.228-2.869 8.908-4.675 14.921-4.675 5.152 0 10.042 1.295 13.4 3.508a16.366 16.366 0 0 1 -26.073 3.984z"/></g></svg>