<svg id="Layer_1" enable-background="new 0 0 512 512" height="512" viewBox="0 0 512 512" width="512" xmlns="http://www.w3.org/2000/svg"><g><path d="m214.731 512h-110.374c-56.057 0-101.499-45.443-101.499-101.499l-2.857-368.283c-.092-11.798 9.447-21.41 21.245-21.41h276.597c11.798 0 21.337 9.613 21.245 21.411l-2.857 368.283c-.001 56.055-45.443 101.498-101.5 101.498z" fill="#004a63"/><path d="m297.842 20.808h-140.185v491.192h57.074c56.057 0 101.499-45.443 101.499-101.499l2.857-368.283c.092-11.798-9.447-21.41-21.245-21.41z" fill="#002431"/><circle cx="73.257" cy="95.909" fill="#74fff4" r="19.559"/><circle cx="242.781" cy="95.909" fill="#ff1e55" r="19.559"/><circle cx="73.257" cy="175.517" fill="#fff5f5" r="19.559"/><circle cx="158.019" cy="175.517" fill="#fff5f5" r="19.559"/><circle cx="242.781" cy="175.517" fill="#cdd7e8" r="19.559"/><circle cx="73.257" cy="241.772" fill="#fff5f5" r="19.559"/><circle cx="158.019" cy="241.772" fill="#fff5f5" r="19.559"/><circle cx="242.781" cy="241.772" fill="#cdd7e8" r="19.559"/><path d="m193.597 362.254h-19.265v-19.836c0-9.009-7.304-16.313-16.313-16.313s-16.313 7.304-16.313 16.313v19.836h-19.265c-9.009 0-16.313 7.304-16.313 16.313s7.304 16.313 16.313 16.313h19.265v19.836c0 9.009 7.304 16.313 16.313 16.313s16.313-7.304 16.313-16.313v-19.836h19.265c9.009 0 16.313-7.304 16.313-16.313-.001-9.01-7.304-16.313-16.313-16.313z" fill="#007aa6"/><g><g><path d="m442.443 142.039c-8.284 0-15-6.716-15-15 0-23.425-19.058-42.482-42.482-42.482-8.284 0-15-6.716-15-15s6.716-15 15-15c39.967 0 72.482 32.515 72.482 72.482 0 8.284-6.715 15-15 15z" fill="#74fff4"/></g><g><g><g><path d="m497 142.039c-8.284 0-15-6.716-15-15 0-53.507-43.531-97.039-97.039-97.039-8.284 0-15-6.716-15-15s6.716-15 15-15c70.05 0 127.039 56.989 127.039 127.039 0 8.284-6.716 15-15 15z" fill="#00ccb2"/></g></g></g><g><circle cx="384.961" cy="127.039" fill="#00ccb2" r="15"/></g></g><path d="m193.597 362.254h-19.265v-19.836c0-9.009-7.304-16.313-16.313-16.313-.122 0-.24.016-.362.018v104.887c.122.003.24.018.362.018 9.009 0 16.313-7.304 16.313-16.313v-19.836h19.265c9.009 0 16.313-7.304 16.313-16.313s-7.304-16.312-16.313-16.312z" fill="#004a63"/><g fill="#cdd7e8"><path d="m158.019 155.958c-.122 0-.24.016-.362.018v39.082c.122.002.24.018.362.018 10.802 0 19.559-8.757 19.559-19.559s-8.757-19.559-19.559-19.559z"/><path d="m158.019 222.213c-.122 0-.24.016-.362.018v39.082c.122.002.24.018.362.018 10.802 0 19.559-8.757 19.559-19.559s-8.757-19.559-19.559-19.559z"/></g></g></svg>