<svg id="Flat" height="512" viewBox="0 0 512 512" width="512" xmlns="http://www.w3.org/2000/svg"><path d="m80 24h25.91a54.09 54.09 0 0 1 54.09 54.09v41.91a0 0 0 0 1 0 0h-25.91a54.09 54.09 0 0 1 -54.09-54.09v-41.91a0 0 0 0 1 0 0z" fill="#35a872" transform="matrix(-1 0 0 -1 240 144)"/><path d="m214.09 24h25.91a0 0 0 0 1 0 0v41.91a54.09 54.09 0 0 1 -54.09 54.09h-25.91a0 0 0 0 1 0 0v-41.91a54.09 54.09 0 0 1 54.09-54.09z" fill="#2e9163"/><path d="m80 144h25.91a54.09 54.09 0 0 1 54.09 54.09v41.91a0 0 0 0 1 0 0h-25.91a54.09 54.09 0 0 1 -54.09-54.09v-41.91a0 0 0 0 1 0 0z" fill="#2e9163" transform="matrix(-1 0 0 -1 240 384)"/><path d="m214.09 144h25.91a0 0 0 0 1 0 0v41.91a54.09 54.09 0 0 1 -54.09 54.09h-25.91a0 0 0 0 1 0 0v-41.91a54.09 54.09 0 0 1 54.09-54.09z" fill="#35a872"/><path d="m205.122 185.854a8 8 0 0 0 -11.268 1.025l-25.854 31.021v-95l38.146-45.775a8 8 0 1 0 -12.292-10.242l-33.854 40.617-33.854-40.621a8 8 0 1 0 -12.292 10.242l38.146 45.779v95l-25.854-31.025a8 8 0 1 0 -12.292 10.242l38.146 45.783v45.1a8 8 0 0 0 16 0v-45.1l38.146-45.775a8 8 0 0 0 -1.024-11.271z" fill="#20754d"/><path d="m226.446 488h-132.892a16 16 0 0 1 -15.782-13.37l-29.772-178.63h224l-29.772 178.63a16 16 0 0 1 -15.782 13.37z" fill="#b37a60"/><rect fill="#d49073" height="48" rx="24" width="256" x="32" y="280"/><path d="m331.017 344h105.966c14.524 0 23.671 17.008 16.551 30.773l-53.54 103.5a18.016 18.016 0 0 1 -31.988 0l-53.54-103.5c-7.12-13.765 2.027-30.773 16.551-30.773z" fill="#b6b9ba"/><path d="m424 24h-80a16 16 0 0 0 -16 16v40l16 40h24v240c0 8.62 6.62 16.03 15.23 16.43a16 16 0 0 0 16.77-15.98v-240.45h24l16-40v-40a16 16 0 0 0 -16-16zm-16 64h-48v-32h48z" fill="#d0d2d4"/><path d="m368 200v160c0 8.62 6.62 16.03 15.23 16.43a16 16 0 0 0 16.77-15.98v-160.45z" fill="#d0d2d4"/><path d="m424 24h-80a16 16 0 0 0 -16 16v40l16 40h24v80h32v-80h24l16-40v-40a16 16 0 0 0 -16-16zm-16 64h-48v-32h48z" fill="#eb423f"/><g fill="#95573a"><path d="m368 200h32v32h-32z" transform="matrix(-1 0 0 -1 768 432)"/><path d="m192 488c0-24 26.49-40 49.04-40a45.439 45.439 0 0 1 7.8.68c3.19-20.2 21.37-35.68 43.33-35.68a46.153 46.153 0 0 1 5.67.36 44.767 44.767 0 0 1 76.32 0 46.153 46.153 0 0 1 5.67-.36c21.96 0 40.14 15.48 43.33 35.68a45.439 45.439 0 0 1 7.8-.68c22.55 0 49.04 16 49.04 40z"/></g></svg>